<svg xmlns="http://www.w3.org/2000/svg" xmlns:xlink="http://www.w3.org/1999/xlink" width="21.965" height="21.558" viewBox="0 0 21.965 21.558"><defs><clipPath id="a"><rect width="21.965" height="21.558" transform="translate(0 0)" fill="#814df5"/></clipPath></defs><g transform="translate(0 0)" clip-path="url(#a)"><path d="M10.881,1.96c2.905,0,3.249.011,4.4.063A6.024,6.024,0,0,1,17.3,2.4a3.371,3.371,0,0,1,1.251.814,3.371,3.371,0,0,1,.814,1.251,6.019,6.019,0,0,1,.375,2.02c.052,1.147.063,1.491.063,4.4s-.011,3.249-.063,4.4a6.02,6.02,0,0,1-.375,2.02A3.6,3.6,0,0,1,17.3,19.363a6.021,6.021,0,0,1-2.02.375c-1.147.052-1.491.063-4.4.063s-3.249-.011-4.4-.063a6.021,6.021,0,0,1-2.02-.375,3.371,3.371,0,0,1-1.251-.814A3.371,3.371,0,0,1,2.4,17.3a6.02,6.02,0,0,1-.375-2.02c-.052-1.147-.063-1.491-.063-4.4s.011-3.249.063-4.4A6.02,6.02,0,0,1,2.4,4.464a3.372,3.372,0,0,1,.814-1.251A3.371,3.371,0,0,1,4.464,2.4a6.024,6.024,0,0,1,2.02-.375c1.147-.052,1.491-.063,4.4-.063m0-1.96C7.926,0,7.555.012,6.394.065A7.986,7.986,0,0,0,3.753.571,5.334,5.334,0,0,0,1.826,1.826,5.334,5.334,0,0,0,.571,3.753,7.987,7.987,0,0,0,.065,6.395C.012,7.555,0,7.926,0,10.881s.012,3.326.065,4.486a7.988,7.988,0,0,0,.506,2.641,5.333,5.333,0,0,0,1.255,1.927A5.333,5.333,0,0,0,3.753,21.19a7.988,7.988,0,0,0,2.641.506c1.161.053,1.531.065,4.486.065s3.326-.012,4.486-.065a7.988,7.988,0,0,0,2.641-.506,5.564,5.564,0,0,0,3.182-3.182,7.988,7.988,0,0,0,.506-2.641c.053-1.16.066-1.531.066-4.486s-.013-3.326-.066-4.486a7.987,7.987,0,0,0-.506-2.641,5.335,5.335,0,0,0-1.255-1.927A5.334,5.334,0,0,0,18.008.571,7.986,7.986,0,0,0,15.367.065C14.206.012,13.836,0,10.881,0m0,5.293a5.587,5.587,0,1,0,5.587,5.587,5.587,5.587,0,0,0-5.587-5.587m0,9.214a3.627,3.627,0,1,1,3.627-3.627,3.627,3.627,0,0,1-3.627,3.627m7.114-9.435a1.306,1.306,0,1,1-1.306-1.306,1.306,1.306,0,0,1,1.306,1.306" transform="translate(0 -0.203)" fill="#814df5"/></g></svg>