<svg xmlns="http://www.w3.org/2000/svg" xmlns:xlink="http://www.w3.org/1999/xlink" width="22" height="22" viewBox="0 0 22 22"><defs><clipPath id="a"><rect width="22" height="22" transform="translate(-0.442 -0.442)" fill="#814df5"/></clipPath></defs><g transform="translate(0.442 0.442)"><g clip-path="url(#a)"><path d="M16.716,0H4.4A4.4,4.4,0,0,0,0,4.4V16.716a4.4,4.4,0,0,0,4.4,4.4H16.716a4.4,4.4,0,0,0,4.4-4.4V4.4a4.4,4.4,0,0,0-4.4-4.4M7.038,16.716H4.4V7.038H7.038ZM5.719,5.923a1.552,1.552,0,1,1,1.54-1.552,1.546,1.546,0,0,1-1.54,1.552M17.6,16.716H14.957v-4.93c0-2.963-3.519-2.739-3.519,0v4.93H8.8V7.038h2.639V8.591C12.666,6.316,17.6,6.148,17.6,10.77Z" fill="#814df5"/></g></g></svg>