<svg xmlns="http://www.w3.org/2000/svg" width="31.5" height="26.799" viewBox="0 0 31.5 26.799">
  <path id="Icon_ion-mail-open" data-name="Icon ion-mail-open" d="M31.547,10.86,19.273,4.8a2.89,2.89,0,0,0-2.545,0L4.453,10.86a3.909,3.909,0,0,0-2.2,3.521v12.98A3.966,3.966,0,0,0,6.235,31.3H29.765a3.966,3.966,0,0,0,3.985-3.937V14.381a3.909,3.909,0,0,0-2.2-3.521Zm-13.8-4.052a.578.578,0,0,1,.509,0l11.91,5.882L18.07,18.667a.578.578,0,0,1-.509,0L5.65,12.784Z" transform="translate(-2.25 -4.5)" fill="#fff"/>
</svg>
