<svg xmlns="http://www.w3.org/2000/svg" xmlns:xlink="http://www.w3.org/1999/xlink" width="245.019" height="70.146" viewBox="0 0 245.019 70.146">
  <defs>
    <clipPath id="clip-path">
      <rect id="Rectangle_1233" data-name="Rectangle 1233" width="245.019" height="70.146" fill="none"/>
    </clipPath>
  </defs>
  <g id="Groupe_4453" data-name="Groupe 4453" transform="translate(-0.001)">
    <g id="Groupe_4452" data-name="Groupe 4452" transform="translate(0.001)" clip-path="url(#clip-path)">
      <path id="Tracé_3060" data-name="Tracé 3060" d="M35.056,11.438c1.014-.078,2.3-.038,3.574-.053,4.938-.058,9.879-.027,14.818-.03q3.533,0,7.067,0,8-.011,16.007-.021c4.508,0,9.016.017,13.525.02q8.545.006,17.089,0c3.621,0,7.243-.052,10.863.021,2,.04,4,.1,5.994.047q5.031-.134,10.059-.054c4.977.076,9.952.057,14.928.069q2.452.006,4.9,0c4.731-.007,9.465-.075,14.2-.006,3.693.054,7.386.19,11.08.24,2.47.033,4.942.024,7.412.022,5.678-.005,11.358.011,17.035-.043a44.7,44.7,0,0,1,6.7.254,29.3,29.3,0,0,1,7.531,2.157,24.442,24.442,0,0,0,2.511,1.022,7.662,7.662,0,0,1,1.754.911,33.033,33.033,0,0,1,9.112,8.256A25.944,25.944,0,0,1,234.1,28.9a30.485,30.485,0,0,1,1.926,4.7,39.631,39.631,0,0,1,1.038,4.4,32.294,32.294,0,0,1,.431,7.544,27.907,27.907,0,0,1-.922,5.853,20.538,20.538,0,0,1-.642,2.453c-.359.862-.633,1.753-1.009,2.61A35.518,35.518,0,0,1,231.9,61.93a31.675,31.675,0,0,1-4.644,5.361,33.463,33.463,0,0,1-4.971,3.763,32.083,32.083,0,0,1-7.845,3.556,32.794,32.794,0,0,1-7.548,1.3c-2.746.2-5.494.226-8.243.189-1.748-.024-3.494-.015-5.241-.041-1.638-.024-3.279.052-4.919.052-3.338,0-6.675.017-10.013.017-3.2,0-6.409-.017-9.614-.018q-13.293,0-26.587,0-7.442,0-14.883,0c-1.56,0-3.123-.117-4.68-.063-2.695.093-5.389.065-8.082.062-2.111,0-4.221.031-6.333-.056-2.146-.088-4.3-.026-6.446-.028q-6.563-.006-13.127-.009c-3.394,0-6.789.014-10.183.012-3.45,0-6.9-.021-10.352-.022-2.546,0-5.091.022-7.637.021-3,0-6,.028-9-.049-1.221-.031-2.448-.088-3.67-.132-1.046-.037-2.1.025-3.149-.042-1.939-.123-3.878-.011-5.817,0-2.089.017-4.178.039-6.267.083a31.32,31.32,0,0,1-8.333-.935c-.8-.2-1.583-.492-2.381-.717a23.511,23.511,0,0,1-4.671-1.814A34.815,34.815,0,0,1,12.377,69.3a31.731,31.731,0,0,1-6.928-7.379,30.4,30.4,0,0,1-4.141-8.931A36.428,36.428,0,0,1,.084,45.943a33.97,33.97,0,0,1,.4-7.88,24.191,24.191,0,0,1,1-3.943,32.941,32.941,0,0,1,2.046-5.013A39.139,39.139,0,0,1,6.336,24.5,35.678,35.678,0,0,1,10.3,20.03a22,22,0,0,1,2.82-2.326,35.423,35.423,0,0,1,3.42-2.179,34.4,34.4,0,0,1,7.49-2.961,39.874,39.874,0,0,1,5.737-.925,45.24,45.24,0,0,1,5.288-.2M168.562,75.312q3.932,0,7.863,0,14.205-.013,28.409-.04a28.682,28.682,0,0,0,4.954-.375,36.7,36.7,0,0,0,7.061-1.959,31.872,31.872,0,0,0,9.017-5.415,29.666,29.666,0,0,0,7-8.624c.39-.73.783-1.459,1.149-2.2a26.463,26.463,0,0,0,1.526-4.3,33.1,33.1,0,0,0,1.165-6.324,32.647,32.647,0,0,0-.02-5.082,26.807,26.807,0,0,0-1.415-7.125,36.115,36.115,0,0,0-2.755-6.183,34.793,34.793,0,0,0-4.228-5.636,32.837,32.837,0,0,0-3.063-2.824,24.752,24.752,0,0,0-3.245-2.349,19.244,19.244,0,0,0-4.155-2.124c-1.227-.406-2.4-.991-3.656-1.34a26.733,26.733,0,0,0-4.143-.867,71.125,71.125,0,0,0-7.335-.245c-1.391-.011-2.783.029-4.174.068-1.069.029-2.14-.052-3.21-.051s-2.141.065-3.211.06c-2.256-.011-4.511-.05-6.766-.078-2.45-.03-4.9-.022-7.353-.092-5.309-.15-10.623,0-15.935-.124-1.619-.038-3.241-.017-4.862.05-1.724.071-3.457-.083-5.181-.024-2.09.072-4.178.01-6.266.038-2.223.031-4.445.015-6.668,0-.9-.005-1.806-.122-2.7-.063-2.167.142-4.335.045-6.5.057-2.958.017-5.916-.049-8.874-.071q-1.977-.015-3.954,0c-2.179.019-4.358.076-6.537.075-2.577,0-5.153-.06-7.731-.075q-6.337-.038-12.673.076c-.507.009-1.02-.1-1.522-.064-1.918.142-3.834,0-5.751-.007-3.032-.011-6.065-.038-9.1.018-1.142.021-2.287.016-3.429.036-2.1.038-4.206-.054-6.309-.059q-6.984-.018-13.969,0c-.924,0-1.848.027-2.771.031-3.86.014-7.719-.031-11.579-.028-1.507,0-3.012,0-4.521.085a35.94,35.94,0,0,0-7.3,1.1A29.127,29.127,0,0,0,18.16,15.42,31.559,31.559,0,0,0,11.5,19.8,32.216,32.216,0,0,0,7.931,23.55a30.872,30.872,0,0,0-2.314,3.2,32.792,32.792,0,0,0-3.014,6.3,37.374,37.374,0,0,0-1.52,6.469,28.039,28.039,0,0,0-.1,6.938A29.928,29.928,0,0,0,3.763,57.161a32.565,32.565,0,0,0,3.09,5.3A33.526,33.526,0,0,0,10.772,66.9a29.316,29.316,0,0,0,6.052,4.4,18.964,18.964,0,0,0,1.778.987,30.381,30.381,0,0,0,5.393,1.806,37.023,37.023,0,0,0,6.64.96c4.5.125,9.011-.025,13.516.209,2.088.108,4.186.019,6.279.022q7.439.012,14.879.024c2.679,0,5.358-.015,8.036-.027,5.827-.026,11.654.07,17.481.01,3.526-.036,7.053-.012,10.579-.008,3.791,0,7.582.017,11.373.022,3.583,0,7.167-.01,10.748.01,2.622.015,5.244.031,7.864.025,2.222-.006,4.448-.035,6.672-.048,4.017-.023,8.035.014,12.052.017q9.223.006,18.447,0" transform="translate(0 -5.988)" fill="#161615"/>
      <path id="Tracé_3061" data-name="Tracé 3061" d="M500.511,0a5.6,5.6,0,0,1,4.661,2.354,5.7,5.7,0,0,1-.4,7.365c-1.643,1.721-5.115,2.043-7.222,1.027-3.01-1.452-3.481-5.127-2.475-7.342A5.908,5.908,0,0,1,500.511,0m.329,10.447c.551-.088,1.13.1,1.665-.191a5.185,5.185,0,0,0,2.467-2.618A4.688,4.688,0,0,0,503.2,1.8a4.742,4.742,0,0,0-5.889.264,4.847,4.847,0,0,0-.621,6.872,3.324,3.324,0,0,0,1.58,1.217,7.084,7.084,0,0,0,2.573.3" transform="translate(-261.314 0)" fill="#161615"/>
      <path id="Tracé_3062" data-name="Tracé 3062" d="M200.393,77.695c-3.394,0-6.789.037-10.183-.018-1.334-.021-2.673-.049-4-.034q-5.312.059-10.624.046c-2.187-.006-4.376-.056-6.56-.042-3.96.025-7.92.051-11.88.046-2.979,0-5.958,0-8.937-.03-1.939-.02-3.883.012-5.825.03-2.922.026-5.845.046-8.769.01-2.58-.032-5.162-.007-7.744-.007-4.354,0-8.709.021-13.063-.01-1.806-.013-3.612-.021-5.418-.048-3.351-.051-6.7.063-10.056.061-1.808,0-3.616.024-5.427-.061-1.86-.086-3.727-.007-5.59-.03-2.131-.026-4.263.138-6.39.066-1.9-.065-3.8.072-5.7-.008-1.151-.048-2.33,0-3.487-.018-2.225-.035-4.449-.014-6.674-.032-2.49-.02-4.98,0-7.469,0-6.5,0-13.007-.04-19.51.017-3.334.029-6.666-.077-10-.017-1.541.027-3.082.061-4.623.079a13.187,13.187,0,0,1-7-1.879A17.269,17.269,0,0,1,11.269,72.4,16.389,16.389,0,0,1,7.53,65.093a17.057,17.057,0,0,1,.039-8.056,16.372,16.372,0,0,1,3.962-7.391,15.8,15.8,0,0,1,3.75-3.052,17.087,17.087,0,0,1,5.352-2.034,28.51,28.51,0,0,1,4.951-.41c2.3,0,4.6.023,6.9-.01,5.143-.074,10.285.088,15.427.028,2.449-.029,4.9-.073,7.348-.057,2.978.018,5.957.007,8.935.046,1.395.018,2.79-.007,4.185-.007q9.876,0,19.752,0c5.71,0,11.42.033,17.131.008,2.055-.009,4.112-.054,6.165-.041q7.439.046,14.88.06,7.3.014,14.6,0c4.769,0,9.537-.023,14.306-.023,5.45,0,10.9.019,16.349.023q8.573.006,17.146,0c1.188,0,2.375-.023,3.563-.022q14.817.009,29.634.03a11.677,11.677,0,0,1,3.587.747,16.265,16.265,0,0,1,4.649,2.4,18,18,0,0,1,3.756,3.8,15.555,15.555,0,0,1,2.307,4.5,16.362,16.362,0,0,1,.4,9.073,17.557,17.557,0,0,1-2.386,5.616,17.027,17.027,0,0,1-3.493,3.743,14.046,14.046,0,0,1-3.32,2.1,15.231,15.231,0,0,1-5.129,1.457c-2.205.125-4.41.025-6.614.051-1.751.022-3.5,0-5.253.016-3.337.035-6.675.01-10.012.01M81.93,61.513c0-2.546.006-5.092,0-7.638,0-.508-.059-1.015-.094-1.522-.018-.26-.14-.43-.421-.432q-.763,0-1.526.006c-.415,0-.608.208-.607.633,0,.942-.1,1.892,0,2.824.194,1.922-.114,3.841.049,5.759.014.168.012.381-.18.432-.225.061-.27-.173-.32-.318q-.274-.8-.564-1.59c-.8-2.191-1.5-4.419-2.315-6.6-.463-1.236-.377-1.224-1.578-1.154a3.461,3.461,0,0,1-.4,0c-.394-.023-.58.155-.624.552-.125,1.126.012,2.256-.058,3.381-.08,1.3.133,2.59.043,3.893a24.914,24.914,0,0,0-.017,3.378c.1,1.506-.057,3.005.009,4.511.031.708.092,1.424.054,2.139a.38.38,0,0,0,.4.441c.414.022.826.078,1.239.083.632.007.8-.163.821-.8.021-.622.03-1.244.033-1.865.005-1.125,0-2.251,0-3.376,0-.716-.016-1.432-.007-2.147,0-.14.042-.33.223-.354s.184.158.231.273c.343.834.695,1.665,1.021,2.506.619,1.6,1.21,3.208,1.837,4.8.379.965.4.956,1.443.892.113-.007.226,0,.34-.006.921-.008.965-.048.966-.952q0-3.875,0-7.749m96.716.389h.024c0,.433.013.867,0,1.3-.074,2.093.017,4.186,0,6.279,0,.478.132.69.658.754a17.383,17.383,0,0,0,4.718-.33,3.149,3.149,0,0,0,2.025-1.142,5.62,5.62,0,0,0-.293-7.335.7.7,0,0,1-.05-1.09,3.667,3.667,0,0,0,.8-1.543,7.349,7.349,0,0,0-.061-4.119,3.62,3.62,0,0,0-2.594-2.6,12.643,12.643,0,0,0-4.606-.223.577.577,0,0,0-.586.666c-.008.657-.041,1.313-.035,1.971.02,2.469.008,4.937.008,7.407m-31.69,2.211h.02v.848c0,1.47-.007,2.94.005,4.411.006.7.121.81.812.878a27.888,27.888,0,0,0,2.938.039,4.264,4.264,0,0,0,3.169-1.252,2.447,2.447,0,0,0,.806-1.2,12.939,12.939,0,0,0,.228-2.076c.033-3,.038-5.994.033-8.992a6.945,6.945,0,0,0-.215-2.183A3.6,3.6,0,0,0,151.3,51.7c-1.107-.075-2.223-.015-3.335-.013-.975,0-1.017.039-1.017,1.019q0,3.442.008,6.883,0,2.261,0,4.523M37.442,66.371h.011c0-.283,0-.566,0-.849.009-.867.016-1.734.032-2.6,0-.217.068-.418.319-.473a.508.508,0,0,1,.549.2,1.233,1.233,0,0,1,.181.47c.525,2.121,1.058,4.239,1.58,6.361.112.454.326.747.845.724.471-.021.943-.008,1.414-.027.381-.016.563-.214.44-.6a29.862,29.862,0,0,0-1.494-4.844.573.573,0,0,1-.051-.274,5.082,5.082,0,0,0-.332-1.933.739.739,0,0,1,.267-.943,4.131,4.131,0,0,0,1.241-1.652,7.387,7.387,0,0,0,.332-3.233,6.036,6.036,0,0,0-.323-2.283,4.086,4.086,0,0,0-3.908-2.64c-1.05-.051-2.1-.05-3.155-.064-.434-.006-.593.26-.594.658,0,2.055-.02,4.111-.011,6.166.007,1.507.062,3.016.05,4.52-.017,2.11-.045,4.221-.034,6.331,0,.732.138.837.86.875a7.438,7.438,0,0,0,1.015,0c.631-.052.761-.162.765-.78.007-1.037,0-2.074,0-3.112m78.039-5.612h.028q0,4.016,0,8.034a6.515,6.515,0,0,0,.093.956c.066.429.264.681.765.6a8.537,8.537,0,0,1,1.073-.049c.564-.021.713-.146.712-.7,0-2.278-.012-4.556-.042-6.833-.006-.46.173-.672.612-.688.4-.014.792-.008,1.188-.028.488-.024.754.18.727.677-.091,1.7.114,3.388.046,5.084-.024.584-.011,1.169,0,1.754.011.635.105.731.719.736.452,0,.9-.022,1.357-.018s.646-.182.641-.677c-.031-2.9-.025-5.807-.044-8.71-.008-1.39-.107-2.782-.049-4.168.059-1.431-.047-2.855-.041-4.282a.431.431,0,0,0-.394-.463,6.205,6.205,0,0,0-1.465-.062c-.738,0-.806.066-.808.81,0,1.735,0,3.47,0,5.2,0,1.559-.055,1.61-1.633,1.537-.738-.034-.893-.188-.895-.918,0-1.845,0-3.691,0-5.536,0-1.132-.008-1.132-1.134-1.128h-.057c-1.412.008-1.419.047-1.405,1.465.025,2.469.007,4.939.007,7.408m86.15.076h.008q0,4.043,0,8.085c0,.262.043.524.063.787a.572.572,0,0,0,.7.56c.452-.044.9-.054,1.354-.053.387,0,.547-.206.554-.56.011-.547.013-1.093.013-1.64q0-2.374,0-4.748c0-.242-.047-.538.3-.574.312-.032.328.277.393.472A17.96,17.96,0,0,1,205.559,65c.351,1.62.851,3.2,1.266,4.8.051.2.119.374.344.389a12.325,12.325,0,0,0,1.575.065c.617-.039.761-.255.616-.858-.14-.584-.338-1.154-.5-1.732q-.707-2.5-1.405-5a.965.965,0,0,1,.343-1.1,4.34,4.34,0,0,0,1.48-2.832,14.873,14.873,0,0,0,.028-3.21,3.913,3.913,0,0,0-2.947-3.579,13.664,13.664,0,0,0-3.766-.238c-.867.009-.961.135-.961,1q0,4.07,0,8.139m19.789,4.441h-.027c0-.226,0-.452,0-.679-.019-1.432.057-2.866-.083-4.3-.028-.291-.033-.641-.391-.657a16.07,16.07,0,0,0-3.042.062.4.4,0,0,0-.377.465c0,.526,0,1.053,0,1.58a.468.468,0,0,0,.48.511c.669.086.737.191.721.862-.024.979,0,1.959-.011,2.938a1.8,1.8,0,0,1-.7,1.453,1.419,1.419,0,0,1-1.643.133,1.3,1.3,0,0,1-.836-1.233c0-2.149-.06-4.3-.058-6.447,0-1.2.043-2.41.053-3.615.013-1.652.449-2.07,2.111-2.014a1.023,1.023,0,0,1,1.127.955,5.226,5.226,0,0,1,.081.786c.036,1.378-.122,1.211,1.277,1.3,1.313.08,1.217.122,1.214-1.087a2.135,2.135,0,0,1,.018-.226,4.126,4.126,0,0,0-3.032-4.254,4.369,4.369,0,0,0-5.323,4.03,37.175,37.175,0,0,0-.059,3.838c.1,1.995.051,4,.049,6a4.8,4.8,0,0,0,.77,2.847,4.053,4.053,0,0,0,2.717,1.944,3.611,3.611,0,0,0,2.7-.754c.316-.222.553-.366.805.1s.7.248,1.07.2.391-.36.391-.658q0-2.036,0-4.072M53.359,64.7h.085c0,.358,0,.717,0,1.075a4.879,4.879,0,0,0,.949,3.139,4.025,4.025,0,0,0,5.114,1.124c.338-.175.581-.338.929.042.236.258.688.2,1.013.113.292-.078.24-.438.242-.7.011-1.053-.053-2.111.026-3.158.147-1.94-.087-3.873-.032-5.809.014-.486-.251-.685-.7-.689-.828-.007-1.656,0-2.485,0-.272,0-.494.094-.518.4-.04.507-.083,1.014-.085,1.522,0,.411.169.655.659.632.544-.025.806.28.744.815a9.152,9.152,0,0,0-.04,1.24c.014.715.027,1.433-.03,2.144A1.386,1.386,0,0,1,58.2,67.94a1.7,1.7,0,0,1-1.769-.441,2.317,2.317,0,0,1-.416-1.269c-.158-1.655-.083-3.315-.1-4.973-.019-1.864.011-3.728.017-5.592a1.5,1.5,0,0,1,.985-1.382,1.389,1.389,0,0,1,1.685.572A2.773,2.773,0,0,1,59,56.42c0,.258-.019.606.332.625a7.2,7.2,0,0,0,1.8.071.586.586,0,0,0,.516-.5,3.34,3.34,0,0,0-.068-1.234A4.252,4.252,0,0,0,58.4,51.806a4.036,4.036,0,0,0-4.936,3.919c-.043,1.6-.086,3.2-.106,4.794-.017,1.393,0,2.788,0,4.181M22.878,63.082h.035c0,1.168,0,2.336,0,3.5a3.349,3.349,0,0,0,.881,2.379,4.054,4.054,0,0,0,3.657,1.357,3.981,3.981,0,0,0,3.112-2.243,5.253,5.253,0,0,0,.385-2.77c-.1-1.843.066-3.68-.017-5.521-.05-1.1-.065-2.217-.027-3.326a5.633,5.633,0,0,0-.309-2,3.449,3.449,0,0,0-1.6-2.116,4.055,4.055,0,0,0-4.531.167,3.5,3.5,0,0,0-1.479,2.06,10.835,10.835,0,0,0-.12,2.525c.04,1.994.013,3.99.013,5.985m69.954,7.226c1.15-.05,1.247-.136,1.095-1.073-.517-3.189-1.031-6.379-1.646-9.552-.4-2.068-.754-4.146-1.125-6.22-.253-1.417-.251-1.417-1.678-1.531-.037,0-.075-.013-.112-.014a.757.757,0,0,0-.913.7c-.222.933-.447,1.866-.653,2.8q-1.129,5.129-2.246,10.262c-.28,1.288-.539,2.58-.809,3.869-.091.432.067.649.519.643.358,0,.717-.013,1.074.01a.686.686,0,0,0,.778-.564,17.9,17.9,0,0,0,.628-2.689.709.709,0,0,1,.817-.713,16.349,16.349,0,0,1,1.747.109.692.692,0,0,1,.662.577c.2.768.257,1.561.433,2.331.248,1.086-.008.95,1.261,1.056a1.078,1.078,0,0,0,.169-.01m66.712-4.888c0,1.491-.013,2.716.005,3.941.01.7.143.765.826.865a35.771,35.771,0,0,0,3.9-.017c.678.026,1.358,0,2.037,0,.368,0,.575-.143.571-.526,0-.508-.025-1.015-.016-1.523.007-.383-.167-.517-.538-.56-1.034-.12-2.072-.05-3.107-.1-.62-.027-.789-.165-.791-.766-.006-1.338.027-2.677.01-4.015-.007-.534.245-.7.722-.691.716.008,1.433,0,2.15,0s.832-.123.842-.811c.005-.32,0-.641,0-.962-.007-.685-.072-.753-.741-.76-.792-.009-1.583-.023-2.375-.015-.42,0-.613-.139-.608-.594.016-1.3,0-2.6-.014-3.9-.005-.445.158-.655.632-.647.98.017,1.961.008,2.942-.01.819-.016.82-.03.844-.822.009-.32.011-.641.026-.961.021-.431-.14-.661-.607-.688-2.053-.115-4.107-.056-6.161-.054-.367,0-.48.245-.492.563-.021.545-.058,1.091-.054,1.636.015,2.33.095,4.661.048,6.991-.032,1.563-.01,3.126-.047,4.422m31.24-.889c0,1.809-.006,3.281,0,4.753,0,.844.144,1,.982,1.007,1.849.015,3.7,0,5.546.008.486,0,.786-.154.806-.707.014-.356.08-.711.063-1.07-.038-.823-.111-.884-.935-.9-1.017-.023-2.035.047-3.053-.048a.62.62,0,0,1-.659-.665c-.092-1.3-.058-2.593-.082-3.89-.014-.735.084-.854.823-.861.81-.008,1.621,0,2.432,0,.449,0,.714-.172.691-.674-.017-.376.008-.754.02-1.131.014-.457-.2-.638-.658-.629-.849.017-1.7.01-2.547,0-.634-.007-.755-.142-.756-.768,0-1.32,0-2.64-.013-3.96,0-.592.108-.752.725-.73.991.035,1.981-.086,2.973.034.789.1,1.027-.15,1.04-.945,0-.283,0-.566-.013-.848-.022-.424-.213-.631-.679-.626-1.924.019-3.848,0-5.772.013-.891.006-.947.068-.934.988.031,2.281.013,4.563.032,6.844.014,1.712.014,3.43-.034,4.807M131.748,51.917c0-.01,0-.02,0-.031-.943,0-1.886,0-2.828,0-.863.006-.863.011-.917.875a1.556,1.556,0,0,0,0,.225c.166,1.824-.007,3.651,0,5.475.005,1.406.093,2.814,0,4.229a43.059,43.059,0,0,0,.052,4.447,22.6,22.6,0,0,0-.016,2.365c.1.689.146.785.86.795.961.013,1.922.024,2.883.023q1.414,0,2.827-.028c.385-.008.737-.121.755-.587.02-.546.013-1.093-.013-1.639-.016-.349-.189-.5-.586-.509-1.147-.034-2.292.127-3.44-.014-.591-.073-.693-.13-.691-.706q.006-1.951.005-3.9c0-.727.171-.894.895-.884q1.16.016,2.319.011c.716,0,.756-.05.748-.786,0-.358-.033-.716-.025-1.074.009-.393-.139-.6-.556-.6-.846,0-1.692-.027-2.538-.02-.635.005-.841-.112-.852-.7q-.035-1.836.014-3.673c.016-.585.178-.705.78-.723.489-.015.979,0,1.469-.009a9.953,9.953,0,0,0,1.918-.079c.2-.042.426-.064.454-.338a7.207,7.207,0,0,0,.085-1.633.517.517,0,0,0-.6-.516c-1,.025-2,.008-3,.008m41.535,7.824q0-1.98,0-3.96c0-1.036.009-2.072-.006-3.109-.009-.637-.121-.727-.7-.786a11.318,11.318,0,0,0-1.272.074c-.643.006-.657-.039-.668.622-.031,1.806-.023,3.612-.01,5.418.026,3.544,0,7.089,0,10.633a8.765,8.765,0,0,0,.07,1.127c.045.35.22.521.544.523,1.527.009,3.055.013,4.582,0a.625.625,0,0,0,.664-.627,5.7,5.7,0,0,0,.022-1.518.594.594,0,0,0-.667-.6l-1.358,0c-1.2,0-1.2,0-1.2-1.176q0-3.31,0-6.619M97.145,60.874h.026q0,4.182,0,8.365a2.415,2.415,0,0,0,.1.55.518.518,0,0,0,.524.419c1.392.126,2.783-.03,4.174,0a.49.49,0,0,0,.541-.524c.017-.527.015-1.055,0-1.582a.42.42,0,0,0-.426-.439c-.507-.039-1.014-.1-1.52-.1-.8,0-.866-.04-.869-.842,0-1.056-.02-2.112,0-3.166.044-2.016-.094-4.029-.086-6.045.006-1.523.018-3.046.072-4.57.033-.937-.119-1.048-1.025-1.051-1.587,0-1.55,0-1.53,1.588.032,2.466.008,4.934.008,7.4M68.714,55.911c0-1.112-.011-2.223.005-3.335.007-.447-.169-.68-.62-.676-.49,0-.98,0-1.468.03a.559.559,0,0,0-.6.607c-.013,2.28-.069,4.56-.033,6.838.037,2.315,0,4.63.083,6.946.039,1.083-.025,2.179.039,3.269.032.552.147.693.721.7.45,0,.9-.077,1.351-.078.389,0,.517-.194.57-.542a14,14,0,0,0-.051-1.407c.091-1.706.025-3.414.009-5.121-.023-2.409-.006-4.818-.006-7.226m71.13,4.647c0,2.016-.011,4.033,0,6.049a25.6,25.6,0,0,0,.1,3.1c.039.3.089.6.476.56.468-.043.934.01,1.405-.031.525-.045.683-.264.669-.749-.017-.6.024-1.207.012-1.809-.025-1.206.026-2.412-.032-3.619-.053-1.123-.086-2.251-.044-3.374.1-2.618.123-5.236.047-7.855-.028-.945-.073-.942-1.04-.949-.264,0-.528-.029-.791-.022-.72.019-.805.107-.806.833q0,3.932,0,7.863m-93.073.315h.014q0,3.787,0,7.574a8.362,8.362,0,0,0,.075,1.351.518.518,0,0,0,.626.489c.411-.024.823-.046,1.234-.06.633-.022.708-.077.719-.7.016-.9.011-1.808.01-2.713,0-1.844.09-3.694-.035-5.53-.114-1.677.014-3.346-.015-5.018-.022-1.257-.151-2.516-.072-3.776a.473.473,0,0,0-.528-.574c-.451,0-.906.018-1.354.008-.583-.012-.68.262-.677.751.012,2.732.006,5.463.006,8.2" transform="translate(-3.734 -23.303)" fill="#161615"/>
      <path id="Tracé_3063" data-name="Tracé 3063" d="M181.225,125.95H168.1c-5.412,0-10.825-.01-16.237.007-1.523.005-3.047.038-4.569.046-3.692.018-7.384-.068-11.077-.077-4.621-.011-9.243.03-13.864.017-2.016-.005-4.036-.076-6.049-.058q-3.447.032-6.9.041c-4.527.011-9.054,0-13.58-.005-4.753,0-9.507.005-14.261,0-1.146,0-2.293-.095-3.438-.072-4.406.088-8.814.094-13.22.061-1.353-.01-2.708-.012-4.062-.04-3.482-.072-6.967-.032-10.45.005-2.2.023-4.408.118-6.611-.038a2.608,2.608,0,0,1-1.39-.411,1.1,1.1,0,0,1-.488-1.273,1.03,1.03,0,0,1,1.019-.878c1.712-.144,3.428-.032,5.141-.05,1.165-.013,2.33.09,3.494,0,.207-.015.414-.029.621-.029,4.357.007,8.715,0,13.073.034,1.541.013,3.086.026,4.624.013,5.086-.043,10.172-.048,15.258-.044,1.92,0,3.841.114,5.759.066,3.6-.09,7.2-.059,10.793-.064,2.221,0,4.442.07,6.663.072,1.975,0,3.95-.068,5.926-.074,4.407-.012,8.814-.032,13.221.009,1.9.017,3.8-.032,5.7-.017,2.389.018,4.781-.046,7.169.016,4.693.122,9.385.049,14.078.067,1.353.005,2.706-.081,4.059-.067,1.262.014,2.522.08,3.786.069,4.543-.04,9.085.044,13.628-.024,1.882-.028,3.766.023,5.649.025q7.269.006,14.538,0c.313,0,.641-.066.885.241.118.149.285.039.416-.022a3.057,3.057,0,0,1,1.326-.223c6.584,0,13.167.017,19.751-.008,1.484-.006,2.971-.032,4.455-.052,4.146-.055,8.294-.058,12.44.01a16.988,16.988,0,0,1,3.042.045,1.442,1.442,0,0,1,1.261,1.115,1.329,1.329,0,0,1-.878,1.369,2.8,2.8,0,0,1-1.273.2h-56.3Z" transform="translate(-22.115 -65.077)" fill="#161615"/>
      <path id="Tracé_3064" data-name="Tracé 3064" d="M57.566,31.233c1.659,0,3.319,0,4.978,0,3.339.008,6.678.028,10.017.027,5.335,0,10.67-.023,16.006-.025,3.64,0,7.28.017,10.92.025q2.683,0,5.366,0h15.83c3.562,0,7.125-.032,10.687.012,2.258.027,4.515-.007,6.772-.01q6.1-.009,12.2,0c2.241.007,4.482.108,6.722.069,5.388-.095,10.776-.091,16.164-.055,1.786.012,3.576.073,5.361.05,3.278-.044,6.558-.135,9.833-.048,3.564.095,7.127.013,10.69.084.433.009.867-.018,1.3-.018q11.517,0,23.034,0,6.983,0,13.965,0a3.228,3.228,0,0,1,1.549.236,1.068,1.068,0,0,1,.684,1.069,1.231,1.231,0,0,1-.717,1.066,3.775,3.775,0,0,1-1.767.252c-2.091.037-4.183.016-6.275.016q-3.5,0-7.008,0c-4.449.007-8.9.027-13.346.026q-18.393-.006-36.786-.026-8.685-.006-17.371,0c-3.695,0-7.39.056-11.082-.019-2.466-.05-4.931-.008-7.394,0-3.545.014-7.092.054-10.635,0-3.507-.056-7.013-.052-10.519-.058-1.07,0-2.141.094-3.21.067-1-.026-1.993.02-2.99.012-3.3-.026-6.6-.077-9.9-.077-3.369,0-6.739.131-10.106.058-4.716-.1-9.43-.028-14.145-.059-1.186-.008-2.373.109-3.557.067-3.994-.143-7.989-.028-11.984-.092-2.112-.033-4.226-.029-6.337.028-3.9.106-7.791-.073-11.686-.009a2.387,2.387,0,0,1-.782-.1,1.362,1.362,0,0,1-.961-1.534,1.32,1.32,0,0,1,1.311-1.007c4.054-.076,8.109,0,12.164,0h3v-.029" transform="translate(-21.705 -16.5)" fill="#161615"/>
      <path id="Tracé_3065" data-name="Tracé 3065" d="M208.965,136.35H192.1c-3.941,0-7.883.01-11.824,0-2.409-.008-4.819-.124-7.226-.063-4.109.1-8.217.051-12.325.058-1.7,0-3.4-.061-5.086-.033-2.866.048-5.732.023-8.6.039-1.865.011-3.731.015-5.6-.04a28.475,28.475,0,0,0-2.927.02c-.353.026-.713-.056-1.069-.056-2.849-.006-5.7-.044-8.546.012-1.709.034-3.423.051-5.127.026-5.96-.087-11.92-.005-17.88-.04q-6.16-.035-12.319-.03c-4.98,0-9.96.021-14.94.025-2.094,0-4.187-.027-6.281-.025q-5.913,0-11.826.03a6.089,6.089,0,0,1-1.347-.14,1.309,1.309,0,0,1-1.056-1.28,1.2,1.2,0,0,1,1.245-1.255c2.279-.13,4.557-.089,6.838-.025a22.488,22.488,0,0,0,3.1-.033,7.654,7.654,0,0,1,1.975.029c.771.116,1.534-.078,2.312-.022,2.008.143,4.025.019,6.036.018,3.54,0,7.081.085,10.622.035,2.632-.038,5.266-.11,7.9-.064,1.334.023,2.67.009,4,.031q6.87.112,13.743.009c1.881-.025,3.759.033,5.638.029,6.545-.016,13.091-.006,19.636-.006H159.4q6.7,0,13.405,0c4.923.005,9.846.025,14.768.026,3.885,0,7.77-.025,11.655-.025,3.81,0,7.619.026,11.428.025q13.664-.006,27.328-.024a2.832,2.832,0,0,1,1.739.346,1.154,1.154,0,0,1-.061,1.973,2.764,2.764,0,0,1-1.388.434c-.3,0-.6.026-.9.026q-5.232-.006-10.464-.016-8.969,0-17.938,0Z" transform="translate(-30.709 -70.526)" fill="#161615"/>
      <path id="Tracé_3066" data-name="Tracé 3066" d="M100.247,20.7q6.817,0,13.635,0,8.742-.009,17.484-.028,4.131-.006,8.261,0c3.845.007,7.689.026,11.534.026,3.734,0,7.468-.025,11.2-.024,5.319,0,10.638.022,15.956.025q12.476.007,24.952,0c3,0,6,.04,8.995.025,8.543-.044,17.086,0,25.63-.026a5.058,5.058,0,0,1,1.782.241,1.2,1.2,0,0,1,.816,1.331,1.236,1.236,0,0,1-1.074,1.067c-.9.042-1.8.027-2.7.031-.188,0-.378-.042-.564-.024a34.766,34.766,0,0,1-4,.039c-2.129-.036-4.254.118-6.384.02a32.842,32.842,0,0,0-4.33.012c-1.221.105-2.444-.014-3.668-.005-4.64.035-9.281.019-13.921.01-1.014,0-2.031-.115-3.04-.065-1.449.072-2.9.083-4.342.033-2-.069-3.985.065-5.98,0-1.538-.048-3.089.026-4.634.013-1.582-.014-3.164.01-4.746-.008-.934-.011-1.875-.029-2.814,0-.789.027-1.582-.081-2.371-.054-4.22.145-8.441.067-12.661.071-1.845,0-3.693-.119-5.535-.063-2.94.091-5.879.062-8.818.057-1.9,0-3.8.034-5.71-.042-1.347-.054-2.706,0-4.06.025-3.39.069-6.783.048-10.174,0-5.089-.071-10.178-.071-15.267-.04-1.742.01-3.484-.015-5.225,0-4.974.029-9.947-.075-14.921.024-1.651.033-3.3.009-4.954,0q-6.385-.016-12.771-.039c-1.5,0-3.01,0-4.515,0-3.559,0-7.117,0-10.677-.005a3.216,3.216,0,0,1-1.8-.383,1.3,1.3,0,0,1-.521-1.231c-.014-.4.325-.59.619-.733a3.108,3.108,0,0,1,1.366-.315c3.96.005,7.92.023,11.879.022,4.488,0,8.977-.025,13.466-.025,4.413,0,8.827.017,13.241.027h1.357" transform="translate(-30.811 -10.921)" fill="#161615"/>
      <path id="Tracé_3067" data-name="Tracé 3067" d="M504.321,5.352a4.084,4.084,0,0,1,1.837.246,1.689,1.689,0,0,1,.982,1.589A1.5,1.5,0,0,1,506.1,8.652c-.652.24-.657.281-.26.86.33.481.687.943,1.016,1.424.132.194.343.426.131.658s-.525.15-.791.038a1.079,1.079,0,0,1-.452-.489A15.73,15.73,0,0,0,504.5,9.4a.9.9,0,0,0-.714-.383c-.553-.007-.673.081-.671.637s.03,1.09.063,1.635c.019.328-.071.586-.43.6a.517.517,0,0,1-.607-.565c-.078-1.765-.18-3.529-.28-5.293-.02-.336.075-.563.447-.568a18.886,18.886,0,0,1,2.015-.108m-.384,2.781c.337-.02.865-.026,1.385-.088a.869.869,0,0,0,.8-.879.866.866,0,0,0-.74-.915,5.249,5.249,0,0,0-1.234-.012c-1.2-.037-1.232-.011-1.147,1.133.053.711.053.711.94.761" transform="translate(-265.147 -2.819)" fill="#161615"/>
      <path id="Tracé_3068" data-name="Tracé 3068" d="M376.271,68.514c0-.7.005-1.391,0-2.086,0-.427.182-.624.619-.588.848.068,1.7.091,2.2.977a2.194,2.194,0,0,1,.248,1.086,3.792,3.792,0,0,1-.631,2.773,1.97,1.97,0,0,1-2.042.577.476.476,0,0,1-.371-.54c.014-.733,0-1.466,0-2.2h-.021" transform="translate(-198.795 -34.783)" fill="#161615"/>
      <path id="Tracé_3069" data-name="Tracé 3069" d="M379.415,85.224a2.492,2.492,0,0,1-2.5,2.78c-.429,0-.583-.175-.585-.56-.008-1.334-.009-2.668-.024-4,0-.451.168-.666.646-.607.7.086,1.432.022,1.93.7a3.227,3.227,0,0,1,.528,1.689" transform="translate(-198.817 -43.759)" fill="#161615"/>
      <path id="Tracé_3070" data-name="Tracé 3070" d="M309.362,72.687q0-2.74,0-5.481c0-1.1.057-1.16,1.133-1.172a1.411,1.411,0,0,1,1.59,1.308,12.064,12.064,0,0,1,.118,2.365c-.008,2.3,0,4.6-.008,6.9a13.831,13.831,0,0,1-.1,1.464,1.236,1.236,0,0,1-1.033,1.115,4.942,4.942,0,0,1-1.3.014c-.4-.013-.391-.354-.4-.631-.015-.98-.013-1.96-.015-2.94s0-1.959,0-2.939h.007" transform="translate(-163.442 -34.888)" fill="#161615"/>
      <path id="Tracé_3071" data-name="Tracé 3071" d="M74.041,68.741c0,.432.026.866-.006,1.3a1.117,1.117,0,0,1-1.214,1.153,4.326,4.326,0,0,1-.9.06c-.365-.055-.605-.25-.572-.637.118-1.37.008-2.743.063-4.114.025-.639.092-.619.738-.693,1.309-.15,1.951.77,1.924,1.92-.008.338,0,.677,0,1.015Z" transform="translate(-37.697 -34.759)" fill="#161615"/>
      <path id="Tracé_3072" data-name="Tracé 3072" d="M425.246,68.993c0-.641-.015-1.281,0-1.921.018-.623.174-.761.788-.733a4.216,4.216,0,0,1,.838.1.993.993,0,0,1,.809.893,6.541,6.541,0,0,1-.1,3.228,1.6,1.6,0,0,1-1.926,1.079.48.48,0,0,1-.432-.557c.008-.358,0-.716,0-1.074q0-.509,0-1.017h.018" transform="translate(-224.661 -35.047)" fill="#161615"/>
      <path id="Tracé_3073" data-name="Tracé 3073" d="M48.787,72.543c0,1.692.06,3.386-.039,5.077-.062,1.07-.451,1.488-1.432,1.633a1.479,1.479,0,0,1-1.642-1.186,13.9,13.9,0,0,1-.065-3.155c.053-.941-.036-1.874-.014-2.812.04-1.652-.075-3.308.082-4.959a1.531,1.531,0,0,1,2.969-.289,4.684,4.684,0,0,1,.14,1.4c.007,1.431,0,2.862,0,4.292" transform="translate(-24.066 -34.768)" fill="#161615"/>
      <path id="Tracé_3074" data-name="Tracé 3074" d="M181.031,81.987a2.2,2.2,0,0,1-.29.048c-.35.024-.572-.145-.513-.5.142-.833.323-1.66.5-2.487.035-.164.121-.345.333-.322.182.02.207.191.234.342.141.776.3,1.551.425,2.329.08.484-.054.6-.69.585" transform="translate(-95.215 -41.595)" fill="#161615"/>
    </g>
  </g>
</svg>
