<svg xmlns="http://www.w3.org/2000/svg" xmlns:xlink="http://www.w3.org/1999/xlink" width="193.753" height="53.494" viewBox="0 0 193.753 53.494">
  <defs>
    <clipPath id="clip-path">
      <rect id="Rectangle_1231" data-name="Rectangle 1231" width="193.753" height="53.494"/>
    </clipPath>
  </defs>
  <g id="Groupe_4451" data-name="Groupe 4451" transform="translate(0)">
    <g id="Groupe_4447" data-name="Groupe 4447" transform="translate(0)" clip-path="url(#clip-path)">
      <path id="Tracé_3042" data-name="Tracé 3042" d="M454.754,38.427h9.44a12.746,12.746,0,1,0-12.746-12.748l0-.01V55.78H472.44L454.747,38.424Zm27.708,21.45H447.107V25.669a17.086,17.086,0,1,1,17.9,17.067Z" transform="translate(-389.868 -7.484)"/>
      <path id="Tracé_3043" data-name="Tracé 3043" d="M852.969,46.927A12.746,12.746,0,1,0,865.015,30.01v-8.4H877.1a12.747,12.747,0,1,0-12.088,16.8v8.429H852.937ZM847.932,42.6h14.757A17.087,17.087,0,1,1,882.1,25.669v.188H867.542l.005,0a17.087,17.087,0,1,1-19.615,16.9Z" transform="translate(-739.379 -7.486)"/>
      <path id="Tracé_3044" data-name="Tracé 3044" d="M1137.977,55.363a21.334,21.334,0,1,0-21.333-21.334,21.334,21.334,0,0,0,21.333,21.334M1112.3,34.029a25.677,25.677,0,1,1,25.676,25.678A25.68,25.68,0,0,1,1112.3,34.029" transform="translate(-969.904 -7.284)"/>
      <path id="Tracé_3045" data-name="Tracé 3045" d="M725.533,12.421h-8.87V55.749h8.87ZM712.3,8.428h17.6V59.743H712.3Z" transform="translate(-621.108 -7.349)"/>
      <path id="Tracé_3046" data-name="Tracé 3046" d="M37.093,22.879v-.005a5.172,5.172,0,0,0-5.173,5.172V43.6a5.173,5.173,0,0,1-10.347,0A5.173,5.173,0,1,1,16.4,38.424a5.175,5.175,0,0,0,5.173-5.174V17.7a5.173,5.173,0,0,1,10.347,0,5.173,5.173,0,1,1,5.173,5.174M26.748,1.813a5.173,5.173,0,1,1-5.174,5.174,5.175,5.175,0,0,1,5.174-5.174m0-1.813A26.747,26.747,0,1,0,53.494,26.748,26.748,26.748,0,0,0,26.748,0" transform="translate(0 0)"/>
      <path id="Tracé_3047" data-name="Tracé 3047" d="M454.745,38.419h9.441a12.747,12.747,0,1,0-12.747-12.748l0-.012V55.775h21L454.738,38.414Zm27.706,21.45H447.1V25.659A17.087,17.087,0,1,1,465,42.727Z" transform="translate(-389.86 -7.475)"/>
      <path id="Tracé_3048" data-name="Tracé 3048" d="M852.963,46.91a12.749,12.749,0,1,0,12.049-16.917V21.6H877.1a12.749,12.749,0,1,0-12.088,16.8v8.428H852.931Zm-5.037-4.328h14.761v0A17.088,17.088,0,1,1,882.1,25.652l0,.19H867.538l0,0a17.088,17.088,0,1,1-19.615,16.9Z" transform="translate(-739.374 -7.469)"/>
      <path id="Tracé_3049" data-name="Tracé 3049" d="M1138,55.365a21.335,21.335,0,1,0-21.334-21.336A21.335,21.335,0,0,0,1138,55.365m-25.677-21.336A25.677,25.677,0,1,1,1138,59.707a25.678,25.678,0,0,1-25.677-25.678" transform="translate(-969.926 -7.284)"/>
      <path id="Tracé_3050" data-name="Tracé 3050" d="M725.535,12.41h-8.872V55.74h8.872Zm-13.238-4h17.6V59.732H712.3Z" transform="translate(-621.108 -7.338)"/>
    </g>
  </g>
</svg>
