<svg xmlns="http://www.w3.org/2000/svg" xmlns:xlink="http://www.w3.org/1999/xlink" width="226.474" height="72.054" viewBox="0 0 226.474 72.054">
  <defs>
    <clipPath id="clip-path">
      <rect id="Rectangle_1232" data-name="Rectangle 1232" width="226.474" height="72.054" fill="none"/>
    </clipPath>
  </defs>
  <g id="Groupe_4450" data-name="Groupe 4450" transform="translate(0 0)">
    <g id="Groupe_4449" data-name="Groupe 4449" transform="translate(0 0)" clip-path="url(#clip-path)">
      <path id="Tracé_3051" data-name="Tracé 3051" d="M225.075,55.92c-2.042.113-4.085-.036-6.127.04-.938.035-1.879-.037-2.818-.034-2.51.007-5.021.035-7.531.04-2.26,0-4.519-.006-6.778-.019-1.625-.01-3.25-.055-4.875-.048-2.9.012-5.79.064-8.685.074-2.768.01-5.537-.026-8.306-.018-4.822.014-9.644.048-14.466.071-.655,0-1.309-.018-1.964-.012-1.24.011-2.48.041-3.72.051-1.286.01-2.572,0-3.859.01-2.79.014-5.581.038-8.371.045q-3.647.009-7.295-.012c-1.312-.006-2.625-.022-3.937-.058-.569-.016-.646-.119-.536-.626.151-.692.313-1.383.508-2.064.528-1.852,1.074-3.7,1.62-5.546a2.726,2.726,0,0,1,.211-.429.583.583,0,0,1,.126.055.519.519,0,0,1,.094.116,6.32,6.32,0,0,0,5.4,3.535,6.211,6.211,0,0,0,1.348-.1c1.95-.281,3.3-1.571,4.668-2.818a1.36,1.36,0,0,0,.184-.242,19.723,19.723,0,0,0,2.3-4.174,9.834,9.834,0,0,0,.11-7.339,5.016,5.016,0,0,0-3.539-3.058,7.2,7.2,0,0,0-2.632-.123,5.167,5.167,0,0,0-2.466.91,11.118,11.118,0,0,0-2.733,2.4,1.493,1.493,0,0,1-.368.243c-.068-.962.516-1.736.54-2.689h-7.231a2.575,2.575,0,0,0-.113.28c-.352,1.289-.7,2.581-1.052,3.869-.406,1.465-.829,2.926-1.232,4.392q-1.067,3.883-2.119,7.771c-.453,1.662-.9,3.326-1.363,4.986-.172.615-.279.7-.894.718-.456.016-.914-.014-1.371-.01-3.068.027-6.136.072-9.2.083-1.624.006-3.249-.057-4.873-.066q-8.177-.042-16.355-.065c-2.148-.006-4.3.037-6.443.013-1.979-.022-3.957-.106-5.935-.158q-1.138-.03-2.276-.035c-.629,0-1.258.032-1.886.019-1.95-.041-3.9-.111-5.849-.138a1.39,1.39,0,0,1-1.313-.709c-.629-1.042-1.3-2.061-1.971-3.076-1.145-1.727-2.309-3.441-3.459-5.165-.577-.865-1.133-1.743-1.713-2.606-.361-.537-.34-.7.238-.993,1.487-.762,3.01-1.462,4.461-2.288,1.562-.888,3.09-1.844,4.572-2.859.936-.641,1.756-1.451,2.635-2.177a16.517,16.517,0,0,0,3.027-3.061,29.671,29.671,0,0,0,1.6-2.746,13.88,13.88,0,0,0,1.793-6.3,23.948,23.948,0,0,0-.008-4.248,15.3,15.3,0,0,0-1.942-6.27,39.9,39.9,0,0,0-2.219-3.447,29.594,29.594,0,0,0-2.906-3,21.567,21.567,0,0,0-4.073-2.913A22.758,22.758,0,0,0,66.67,1.794c-1.554-.458-3.145-.8-4.732-1.131A29.132,29.132,0,0,0,56.208,0a58.966,58.966,0,0,0-7.751.363,41.8,41.8,0,0,0-8.839,2.159,52.426,52.426,0,0,0-5.052,2.1c-1.438.687-2.807,1.523-4.179,2.341S27.646,8.6,26.349,9.521c-1.711,1.216-3.356,2.527-5.016,3.814-.58.449-1.11.961-1.683,1.42a.509.509,0,0,0-.1.79,3.345,3.345,0,0,0,.242.293c.98,1.13,1.964,2.256,2.939,3.39q2.532,2.944,5.056,5.894,2.574,2.992,5.156,5.977c.537.624.7.635,1.366.1a18.361,18.361,0,0,1,1.5-1.148A43.72,43.72,0,0,1,41.9,26.62a28.005,28.005,0,0,1,4.064-1.472A24.252,24.252,0,0,1,48.85,24.5a25.7,25.7,0,0,1,3.92-.352,8.365,8.365,0,0,1,3.906,1.123,6.718,6.718,0,0,1,2.61,2.486,6.787,6.787,0,0,1,.539,5.092,7.954,7.954,0,0,1-2.632,4.183,19.13,19.13,0,0,1-4.05,2.818,4.817,4.817,0,0,1-1.878.684,1.963,1.963,0,0,1,.056-.469c.743-1.83,1.5-3.655,2.243-5.484a2.2,2.2,0,0,0,.266-1.214c-.484-.329-.975-.132-1.444-.141-2.178-.044-4.357-.088-6.536-.106-2.564-.021-5.128-.016-7.692-.022-.609,0-1.218,0-1.827-.008-.291,0-.469.077-.535.4-.225,1.114-.44,2.232-.722,3.332-.391,1.523-.805,3.041-1.274,4.541-.369,1.181-.9,2.312-1.248,3.5a57.55,57.55,0,0,1-3.214,7.791,23.175,23.175,0,0,1-2.349,3.621,16.8,16.8,0,0,1-1.113,1.352,1.859,1.859,0,0,1-.406.268c-.039-.114-.081-.172-.066-.2.083-.183.172-.364.272-.539a14.167,14.167,0,0,0,1.891-6.883,13.348,13.348,0,0,0-.643-4.412,11.921,11.921,0,0,0-1.475-3.24,16.045,16.045,0,0,0-3.958-4.053,12.1,12.1,0,0,0-6.118-2.088,12.642,12.642,0,0,0-5.738.9,12.8,12.8,0,0,0-4.7,3.258A25.568,25.568,0,0,0,3.1,43.058,13.348,13.348,0,0,0,2.274,44.4a11.946,11.946,0,0,0-.5,1.105c-.382.9-.788,1.8-1.128,2.717A11.222,11.222,0,0,0,.01,51.881a16.16,16.16,0,0,0,1.141,7.054,15.926,15.926,0,0,0,2.621,4.249,19.742,19.742,0,0,0,3.249,3.031c.767.569,1.587,1.066,2.378,1.6a21.2,21.2,0,0,0,3.367,1.573,6.949,6.949,0,0,0,1.157.345,27.5,27.5,0,0,0,5.124.64,15.526,15.526,0,0,0,3.713-.187c1.22-.223,2.425-.527,3.641-.771a18.376,18.376,0,0,0,5.109-1.89,23.839,23.839,0,0,0,5.537-3.872c1.1-1.086,2.218-2.164,3.235-3.327a37.061,37.061,0,0,0,3.932-5.4A50.212,50.212,0,0,0,46.905,50c.173-.38.376-.746.592-1.17.176.216.3.345.4.491q1.5,2.24,3,4.484,1.666,2.49,3.338,4.976,2.033,3.021,4.07,6.04c.324.483.616.987.932,1.476.6.934,1.271,1.832,1.8,2.806a1.356,1.356,0,0,0,1.39.782c1.572-.016,3.145,0,4.718.029.531.009,1.062.126,1.592.122,1.669-.013,3.338-.074,5.007-.088,1.116-.009,2.232.037,3.349.047,2.281.019,4.562.022,6.842.047,1.872.021,3.743.072,5.614.1.94.011,1.88.006,2.82-.023s1.888.056,2.835.042c2.509-.039,5.02.006,7.53.02q2.971.016,5.942.04c1.724.015,3.448.057,5.171.052,1.764-.006,3.523-.124,5.294.016a41.631,41.631,0,0,0,4.182-.024c.578-.013.622.012.491.567-.091.383-.319.77.066,1.183.573,0,1.181,0,1.788,0,1.544.012,3.089.02,4.633.046a.68.68,0,0,0,.784-.55,6.924,6.924,0,0,1,.3-.864.558.558,0,0,1,.555-.426c1.67.009,3.34-.007,5.009,0,.862,0,1.724.067,2.586.06,1.8-.015,3.594-.087,5.391-.084,1.721,0,3.441.094,5.162.108,1.773.014,3.546-.013,5.319-.034,2.28-.027,4.56-.089,6.841-.091,2.255,0,4.51.049,6.765.086a8.473,8.473,0,0,0,1.714.056,12.968,12.968,0,0,1,2.494-.114c4.161-.02,8.322-.045,12.483-.05,3.707,0,7.415.023,11.122.022,3.387,0,6.774-.033,10.161-.032,4.166,0,8.332,0,12.5.055a.974.974,0,0,0,1.054-.745c.371-.914.77-1.817,1.167-2.722.416-.95.843-1.9,1.264-2.844q1.353-3.049,2.705-6.1c.242-.546.491-1.088.811-1.8-.6-.032-1-.092-1.4-.07M141.653,39.512a2.1,2.1,0,0,1,3.284.4,3.844,3.844,0,0,1,.312,1.025,4.993,4.993,0,0,1-1.547,3.58,2,2,0,0,1-2.181.48,2.032,2.032,0,0,1-1.341-1.953,4.382,4.382,0,0,1,1.472-3.53" transform="translate(0 0)"/>
      <path id="Tracé_3052" data-name="Tracé 3052" d="M1383.148,425.719a8.272,8.272,0,0,0-.475,1.894,7.753,7.753,0,0,0,.807,4.5,6.514,6.514,0,0,0,1.428,1.853,6.3,6.3,0,0,0,5.491,1.333c.684-.136,1.353-.347,2.041-.527.005.006.034.023.037.044.032.221.061.442.1.719a1.05,1.05,0,0,0,.251.073c1.8-.006,3.59-.013,5.385-.029.528,0,.612-.1.784-.636.373-1.154,1.347-4.62,1.453-5.006.207-.756.451-1.5.666-2.257q.76-2.666,1.506-5.336c.261-.928.524-1.855.776-2.785.155-.574.042-.725-.554-.787a2.2,2.2,0,0,0-.228-.012c-1.726,0-3.453.013-5.179-.009a.616.616,0,0,0-.687.549c-.092.369-.168.742-.271,1.107a1.452,1.452,0,0,1-.2.33c-.083-.046-.117-.053-.124-.07a3.945,3.945,0,0,0-3.429-2.59c-.5-.066-1.011-.057-1.515-.1a5.59,5.59,0,0,0-3.842,1.161,9.822,9.822,0,0,0-3.224,3.965,27.12,27.12,0,0,0-1,2.622m8.322-1.382a2.17,2.17,0,0,1,1.279-.365c1.334.164,2.023.931,1.993,2.025a4.652,4.652,0,0,1-.974,2.773,2.678,2.678,0,0,1-2.646.659,2.251,2.251,0,0,1-1.434-1.981,3.541,3.541,0,0,1,1.781-3.109" transform="translate(-1272.774 -384.741)"/>
      <path id="Tracé_3053" data-name="Tracé 3053" d="M969.188,400.18a17.86,17.86,0,0,0-.917,3.35,10.134,10.134,0,0,0-.012,3.769,7.439,7.439,0,0,0,3.1,4.948,8.845,8.845,0,0,0,3.379,1.492,7.79,7.79,0,0,0,5.254-.514,10.817,10.817,0,0,0,3.352-2.692,13.05,13.05,0,0,0,3.011-8.312c0-.355,0-.711,0-1.066a6.823,6.823,0,0,0-.979-3.475,7.8,7.8,0,0,0-7.092-3.8,8.967,8.967,0,0,0-5.407,1.76,10.583,10.583,0,0,0-3.683,4.542m6.933,1.211a2.14,2.14,0,0,1,2.367-.535,2.089,2.089,0,0,1,1.439,2.033,4.057,4.057,0,0,1-1.547,3.466,1.942,1.942,0,0,1-2.056.407,2.307,2.307,0,0,1-1.357-1.967c-.009-.126-.018-.253-.026-.379a3.951,3.951,0,0,1,1.18-3.025" transform="translate(-891.168 -362.582)"/>
      <path id="Tracé_3054" data-name="Tracé 3054" d="M2314,429.15c-.046.066-.162.083-.294.147-.092-.742.557-1.318.264-2.125-2.355-.083-4.744-.055-7.075-.071-.426,1.422-.824,2.722-1.2,4.027-.389,1.336-.741,2.682-1.142,4.014-.613,2.032-1.276,4.049-1.874,6.086a6.1,6.1,0,0,0-.435,2.313,2.729,2.729,0,0,0,.384.063q1.446.027,2.892.042c1.089.01,2.178,0,3.267.024a.624.624,0,0,0,.723-.5c.284-1.026.612-2.039.889-3.066a26.786,26.786,0,0,1,2.079-6.1,2.606,2.606,0,0,1,1.948-1.545,1.3,1.3,0,0,1,1.558,1.741c-.188.7-.437,1.393-.637,2.094-.562,1.96-1.127,3.919-1.655,5.888-.1.391-.5.744-.2,1.277a5.51,5.51,0,0,0,.694.091c1.828.027,3.656.049,5.484.057.664,0,.754-.064.951-.745.3-1.044.564-2.1.854-3.147.468-1.684.961-3.362,1.412-5.05a20.983,20.983,0,0,0,.838-3.921,3.271,3.271,0,0,0-1.988-3.343,7.245,7.245,0,0,0-4.606-.266A5.619,5.619,0,0,0,2314,429.15" transform="translate(-2119.298 -392.952)"/>
      <path id="Tracé_3055" data-name="Tracé 3055" d="M2572.19,307.555c.633.021,1.266.023,1.9.03,2,.023,4,.059,6.008.061.933,0,.924-.033,1.195-.915.34-1.109.7-2.211,1.046-3.319.177-.57.333-1.147.5-1.713-.8-.416-1.568-.117-2.436-.186.076-.361.115-.634.191-.9.526-1.8,1.054-3.591,1.595-5.382.3-.99.622-1.974.94-2.958.213-.66.28-.709.971-.721a9.3,9.3,0,0,1,.99.021c.577.052.99-.086,1.106-.74a7.075,7.075,0,0,1,.3-.858c.282-.888.579-1.773.823-2.672a4.015,4.015,0,0,0,.351-1.808c-.862-.322-1.74.162-2.631-.21.275-1.017.534-2.011.815-3a17.637,17.637,0,0,0,.812-3.022c-.474,0-.849,0-1.225,0-1.953-.011-3.906-.014-5.859-.042-.328,0-.425.11-.5.409-.393,1.491-.819,2.973-1.226,4.461-.386,1.414-.756,2.833-1.144,4.247q-.891,3.25-1.8,6.5-.869,3.134-1.744,6.267c-.318,1.139-.647,2.274-.964,3.413-.262.941-.514,1.885-.8,2.929.314.043.551.1.79.1" transform="translate(-2367.086 -257.042)"/>
      <path id="Tracé_3056" data-name="Tracé 3056" d="M1225.348,305.522c.8.008.884-.074,1.107-.846q.675-2.339,1.337-4.683c.039-.138.051-.285.093-.527l-1.988-.093a9.062,9.062,0,0,1,.126-.96c.188-.763.4-1.52.6-2.278.26-.952.537-1.9.784-2.856.323-1.249.616-2.507.941-3.756.139-.533.264-.614.8-.612.405,0,.811.033,1.216.042.339.007.52-.1.618-.495.357-1.453.788-2.887,1.178-4.332.13-.481.223-.972.359-1.577l-1.438-.05c-.711-.026-.768-.062-.6-.756.328-1.353.686-2.7,1.056-4.042.219-.8.156-.914-.678-.973-.177-.012-.356,0-.534,0h-5.872c-.516,1.923-1.023,3.829-1.54,5.732s-1.048,3.8-1.566,5.708-1.023,3.8-1.535,5.7-1.039,3.81-1.541,5.72-1.112,3.764-1.55,5.784c.747.015,1.375.03,2,.041,2.206.038,4.413.083,6.619.105" transform="translate(-1120.051 -254.736)"/>
      <path id="Tracé_3057" data-name="Tracé 3057" d="M1920.418,419.767h7.037l3.417-11.806c.157.1.191.106.2.124.108.306.229.608.314.921a4.035,4.035,0,0,0,3.827,2.841,4.689,4.689,0,0,0,3.78-1.981,12.98,12.98,0,0,0,1.342-2.618,5.24,5.24,0,0,0-.116-4.288,3.7,3.7,0,0,0-4.268-1.991,4.839,4.839,0,0,0-3.41,2.452,4.358,4.358,0,0,1-.319.4l-.247-.6a1.893,1.893,0,0,0-.238-.035q-1.924-.028-3.847-.052c-.759-.009-1.519.006-2.276-.032a.652.652,0,0,0-.76.559c-.3,1.1-.627,2.189-.927,3.287-.246.9-.448,1.817-.7,2.717-.463,1.649-.95,3.291-1.427,4.936-.395,1.36-.8,2.719-1.179,4.083-.093.33-.125.676-.2,1.083" transform="translate(-1767.829 -369.04)"/>
      <path id="Tracé_3058" data-name="Tracé 3058" d="M2150.041,429.8c-1.6.01-3.2.007-4.8.031-.717.011-.738.049-.951.73q-1.132,3.616-2.26,7.232c-.448,1.446-.863,2.9-1.323,4.344-.276.865-.616,1.71-.912,2.569-.167.487-.3.984-.494,1.613.971,0,1.753-.007,2.535,0,1.414.016,2.829.028,4.243.068.707.02.806-.02,1.017-.723.466-1.55.938-3.1,1.389-4.654.591-2.036,1.161-4.079,1.747-6.117q.492-1.713,1.008-3.419c.1-.339.275-.658.361-1,.125-.5-.052-.7-.573-.7-.33,0-.66.018-.99.02" transform="translate(-1969.322 -395.631)"/>
      <path id="Tracé_3059" data-name="Tracé 3059" d="M2166.818,78.847c6.556-5.806,8.07-14.806,3.379-20.1s-13.807-4.884-20.364.922-8.069,14.806-3.379,20.1,13.807,4.884,20.364-.922" transform="translate(-1973.396 -50.654)"/>
    </g>
  </g>
</svg>
