<svg xmlns="http://www.w3.org/2000/svg" xmlns:xlink="http://www.w3.org/1999/xlink" width="180.367" height="49.92" viewBox="0 0 180.367 49.92">
  <defs>
    <clipPath id="clip-path">
      <rect id="Rectangle_1185" data-name="Rectangle 1185" width="180.367" height="49.92" fill="#000"/>
    </clipPath>
  </defs>
  <g id="Groupe_4548" data-name="Groupe 4548" transform="translate(0 0)">
    <g id="Groupe_4399" data-name="Groupe 4399" transform="translate(0 0)" clip-path="url(#clip-path)">
      <path id="Tracé_2990" data-name="Tracé 2990" d="M14.17,22.57C12.1,25,8.434,25,7.7,25a8.639,8.639,0,0,1-4.891-1.276,7.862,7.862,0,0,1-.864-.666A6.4,6.4,0,0,1,1.008,21.9,6.285,6.285,0,0,1,0,18.237,6.43,6.43,0,0,1,1.114,14.46a5.062,5.062,0,0,1,.918-1.008,7.828,7.828,0,0,1,1.475-.988A9.985,9.985,0,0,1,7.66,11.6a9.9,9.9,0,0,1,4.784,1.169,7.165,7.165,0,0,1,1.312,1.06A6.926,6.926,0,0,1,14.8,15.288l-1.924.412a5.934,5.934,0,0,0-.342-.556A4.131,4.131,0,0,0,11.4,14.1a7.035,7.035,0,0,0-3.667-.916,7.137,7.137,0,0,0-3.939,1.06,3.784,3.784,0,0,0-.718.648,4.651,4.651,0,0,0-1.169,3.327,5.3,5.3,0,0,0,1.008,3.2,5.663,5.663,0,0,0,3.541,1.907,10.567,10.567,0,0,0,1.457.09,6.221,6.221,0,0,0,4.549-1.637,4.538,4.538,0,0,0,.7-.97l1.907.394a8.5,8.5,0,0,1-.9,1.367" transform="translate(0 5.793)" fill="#000"/>
      <path id="Tracé_2991" data-name="Tracé 2991" d="M23.333,24.548l-1.546-3.129h-7.8l-1.547,3.129H10.4l6.582-12.7H18.91l6.51,12.7ZM17.9,13.669l-3.164,6.294h6.275Z" transform="translate(5.195 5.918)" fill="#000"/>
      <path id="Tracé_2992" data-name="Tracé 2992" d="M33.666,24.548l-4.3-5.089H23.235v5.089H21.419v-12.7h8.65a6.757,6.757,0,0,1,2.015.2,3.452,3.452,0,0,1,2.679,3.523,3.343,3.343,0,0,1-2.051,3.255,5.829,5.829,0,0,1-1.384.342l4.693,5.377Zm-1.1-10.142c-.537-.954-1.384-1.044-2.373-1.044H23.218v4.6h6.275a3.48,3.48,0,0,0,2.931-.936,2.075,2.075,0,0,0,.468-1.384,2.394,2.394,0,0,0-.324-1.241" transform="translate(10.696 5.918)" fill="#000"/>
      <path id="Tracé_2993" data-name="Tracé 2993" d="M38.309,13.363V24.548h-1.8V13.363H31.332v-1.51H43.507v1.51Z" transform="translate(15.646 5.918)" fill="#000"/>
      <path id="Tracé_2994" data-name="Tracé 2994" d="M40.68,24.548v-12.7H52.387v1.564H42.477v3.777h9.657V18.7H42.477v4.281H52.854v1.564Z" transform="translate(20.314 5.918)" fill="#000"/>
      <path id="Tracé_2995" data-name="Tracé 2995" d="M65.31,23.038c-1.726,1.456-3.937,1.51-6.06,1.51H54.179v-12.7h6.312c.36,0,.7,0,1.06.016a6.423,6.423,0,0,1,3.293,1.008,6.047,6.047,0,0,1,2.607,5.234,6.42,6.42,0,0,1-2.141,4.927m-2.858-9.513a7.967,7.967,0,0,0-1.961-.18H56V23.02h3.7c.343,0,.666-.018.99-.036a5.285,5.285,0,0,0,3.4-1.187,5.056,5.056,0,0,0,1.528-3.759,4.4,4.4,0,0,0-3.164-4.513" transform="translate(27.055 5.918)" fill="#000"/>
      <path id="Tracé_2996" data-name="Tracé 2996" d="M64.68,24.548v-12.7H76.387v1.564H66.477v3.777h9.657V18.7H66.477v4.281H76.854v1.564Z" transform="translate(32.298 5.918)" fill="#000"/>
      <path id="Tracé_2997" data-name="Tracé 2997" d="M85.061,24.548H83.244l-6.095-12.7h2l5.035,10.7,4.891-10.7h1.978Z" transform="translate(38.525 5.918)" fill="#000"/>
      <rect id="Rectangle_1183" data-name="Rectangle 1183" width="1.835" height="12.695" transform="translate(131.074 17.77)" fill="#000"/>
      <path id="Tracé_2998" data-name="Tracé 2998" d="M102.624,22.948a5.431,5.431,0,0,1-3.741,1.888,15.054,15.054,0,0,1-1.834.126,15.175,15.175,0,0,1-3.273-.378,8.23,8.23,0,0,1-1.366-.448,6.447,6.447,0,0,1-1.331-.774,4.945,4.945,0,0,1-1.186-1.277l1.672-.684a3.557,3.557,0,0,0,.27.306,5.459,5.459,0,0,0,1.744,1.1,10.31,10.31,0,0,0,3.6.612,6.086,6.086,0,0,0,3.453-.864,2.165,2.165,0,0,0,.864-1.708,1.649,1.649,0,0,0-1.08-1.565,17.694,17.694,0,0,0-4.135-.63c-2.429-.2-3.615-.324-4.551-1.186a2.715,2.715,0,0,1-.9-2.122,3.163,3.163,0,0,1,1.763-2.877,8.98,8.98,0,0,1,4.189-.828,8.853,8.853,0,0,1,4.945,1.2,4.8,4.8,0,0,1,.576.432,5.883,5.883,0,0,1,.828.918l-1.655.666a6.256,6.256,0,0,0-.772-.666,6.619,6.619,0,0,0-3.9-1.062,8.374,8.374,0,0,0-2.769.414,1.872,1.872,0,0,0-1.4,1.709,1.536,1.536,0,0,0,.217.792,2.6,2.6,0,0,0,2.084.88c1.4.18,2.805.252,4.209.414,1.96.234,2.859.738,3.47,1.492a3.152,3.152,0,0,1,.667,2,3.529,3.529,0,0,1-.648,2.123" transform="translate(44.889 5.811)" fill="#000"/>
      <rect id="Rectangle_1184" data-name="Rectangle 1184" width="1.835" height="12.695" transform="translate(150.559 17.77)" fill="#000"/>
      <path id="Tracé_2999" data-name="Tracé 2999" d="M109.8,13.363V24.548h-1.8V13.363h-5.179v-1.51H115v1.51Z" transform="translate(51.348 5.918)" fill="#000"/>
      <path id="Tracé_3000" data-name="Tracé 3000" d="M112.176,24.548v-12.7h11.707v1.564h-9.909v3.777h9.657V18.7h-9.657v4.281h10.377v1.564Z" transform="translate(56.016 5.918)" fill="#000"/>
      <path id="Tracé_3001" data-name="Tracé 3001" d="M58.677,11.686c.151.073.228.169.228.285a2.283,2.283,0,0,1-.85,1.408,2.329,2.329,0,0,1-1.427.837c-.436,0-.655-.315-.655-.948a9.893,9.893,0,0,1,.07-1.178l.087-.7.61-5.5a7.614,7.614,0,0,1,1.726-4.2A4.288,4.288,0,0,1,61.791,0a3.185,3.185,0,0,1,.775.079L61.445,1.225a2.71,2.71,0,0,0-.868-.126,2.027,2.027,0,0,0-1.774.832,6.322,6.322,0,0,0-.81,2.826l-.733,6.621c-.057.51-.087.877-.087,1.1,0,.475.082.712.244.712.193,0,.423-.157.685-.468a3.049,3.049,0,0,0,.574-1.035" transform="translate(27.95 0)" fill="#000"/>
      <path id="Tracé_3002" data-name="Tracé 3002" d="M62.666,8.691A10.205,10.205,0,0,1,60.7,11.1a3.066,3.066,0,0,1-1.859.937q-1.082,0-1.083-1.748a6.032,6.032,0,0,1,1.577-4.162,4.865,4.865,0,0,1,3.736-1.759,4.166,4.166,0,0,1,1.4.205c-.025.094-.042.151-.046.172l-.1.418c-.063.291-.1.459-.1.507l-.507,3.489-.07.507a9.187,9.187,0,0,0-.1,1c0,.226.066.339.2.339.442,0,.892-.492,1.355-1.478.141.084.211.169.211.253a2.7,2.7,0,0,1-.679,1.114,2.463,2.463,0,0,1-1.717,1.14c-.384,0-.577-.258-.577-.775A5.565,5.565,0,0,1,62.4,10.6l.081-.633.1-.7Zm.451-3.132a2.974,2.974,0,0,0-1.456-.4A2.172,2.172,0,0,0,59.8,6.507a6.809,6.809,0,0,0-.751,3.348c0,.684.2,1.027.609,1.027a2.682,2.682,0,0,0,1.7-1.074,6.2,6.2,0,0,0,1.631-3.4Z" transform="translate(28.844 2.18)" fill="#000"/>
      <path id="Tracé_3003" data-name="Tracé 3003" d="M52.457,24.108c-.024.094-.042.153-.045.174l-.088.418c-.067.306-.106.475-.109.507L51.9,28.1q-.079.726-.166,2.553a15.732,15.732,0,0,1-.433,3.384A4.782,4.782,0,0,1,50.15,36a5.514,5.514,0,0,1-4.008,1.985,2.288,2.288,0,0,1-1.708-.7,2.378,2.378,0,0,1-.682-1.738q0-2.125,2.6-4.192a1.858,1.858,0,0,1-.553-1.535,6.043,6.043,0,0,1,1.573-4.156A4.834,4.834,0,0,1,51.09,23.9a3.478,3.478,0,0,1,1.367.205m-1.711,4.155q-2.132,3.261-3.864,3.261c-.046,0-.13,0-.25-.015A5.09,5.09,0,0,0,44.79,34.8a2.19,2.19,0,0,0,.7,1.655,2.423,2.423,0,0,0,1.738.667,2.716,2.716,0,0,0,2.454-1.408q.648-1.082.9-5.161c.063-1.026.12-1.79.163-2.291M51.1,25.1a2.415,2.415,0,0,0-1.432-.4,2.146,2.146,0,0,0-1.831,1.36,6.871,6.871,0,0,0-.747,3.345c0,.685.2,1.027.607,1.027a2.706,2.706,0,0,0,1.7-1.075A5.786,5.786,0,0,0,51,25.966Z" transform="translate(21.848 11.936)" fill="#000"/>
      <path id="Tracé_3004" data-name="Tracé 3004" d="M55.136,28.885a.385.385,0,0,1,.2.316,1.773,1.773,0,0,1-.507.838,3.7,3.7,0,0,1-2.672,1.567,1.639,1.639,0,0,1-1.328-.642,2.5,2.5,0,0,1-.522-1.636,6.139,6.139,0,0,1,1.364-3.649q1.363-1.846,2.7-1.846.963,0,.964,1.036a3.212,3.212,0,0,1-1.128,2.269A6.089,6.089,0,0,1,51.46,28.68q.157,1.9,1.5,1.9,1.327,0,2.174-1.693m-3.645-1.169a1.3,1.3,0,0,0,.418.079,2.635,2.635,0,0,0,1.717-.6,1.776,1.776,0,0,0,.735-1.408.825.825,0,0,0-.94-.925,1.522,1.522,0,0,0-1.229.811,4.571,4.571,0,0,0-.7,2.044" transform="translate(25.12 11.901)" fill="#000"/>
      <path id="Tracé_3005" data-name="Tracé 3005" d="M56.614,31.124l-1.181.483.022-.222.064-.585.063-.553.412-3.669.048-.42c.031-.327.046-.589.046-.79,0-.337-.084-.507-.253-.507q-.594,0-1.274,1.345c-.121-.1-.183-.187-.183-.261q0-.475.868-1.292a2.41,2.41,0,0,1,1.364-.819q.681,0,.681.87a5.757,5.757,0,0,1-.04.592l-.063.642-.064.537-.064.562a10.38,10.38,0,0,1,2.044-2.3A3.261,3.261,0,0,1,61,23.834c.511,0,.768.354.768,1.066a8.428,8.428,0,0,1-.084.972l-.43,2.945a10.165,10.165,0,0,0-.13,1.4c0,.273.073.411.222.411q.547,0,1.348-1.447c.126.078.189.16.189.244q0,.515-.883,1.348a2.442,2.442,0,0,1-1.436.835q-.618,0-.618-.886a13.321,13.321,0,0,1,.166-1.795l.279-1.913a10.939,10.939,0,0,0,.135-1.478q0-.625-.435-.625a2.787,2.787,0,0,0-2.05,1.372,5.9,5.9,0,0,0-1.211,2.945Z" transform="translate(27.154 11.901)" fill="#000"/>
      <path id="Tracé_3006" data-name="Tracé 3006" d="M65.462,30.181a.383.383,0,0,1,.2.316,1.775,1.775,0,0,1-.508.838,3.7,3.7,0,0,1-2.67,1.565,1.638,1.638,0,0,1-1.328-.64,2.51,2.51,0,0,1-.522-1.637A6.138,6.138,0,0,1,62,26.976q1.361-1.846,2.7-1.847.967,0,.967,1.036a3.215,3.215,0,0,1-1.128,2.27,6.089,6.089,0,0,1-2.747,1.541q.157,1.9,1.5,1.9,1.327,0,2.174-1.693m-3.645-1.169a1.3,1.3,0,0,0,.418.078,2.627,2.627,0,0,0,1.717-.6,1.776,1.776,0,0,0,.735-1.406.824.824,0,0,0-.942-.925,1.521,1.521,0,0,0-1.228.81,4.578,4.578,0,0,0-.7,2.045m2.894-4.9a4.459,4.459,0,0,1-1.6-2.23l.64-.64A4.967,4.967,0,0,0,65.4,23.382Z" transform="translate(30.277 10.605)" fill="#000"/>
      <path id="Tracé_3007" data-name="Tracé 3007" d="M68.561,29.853q2.209-3.086,2.207-4.294a.793.793,0,0,0-.459-.712l.988-1.012a.977.977,0,0,1,.577.933,7.787,7.787,0,0,1-1.51,3.077q-.331.49-.466.711l-.2.34-.363.577q-.3.475-.633,1.068l-1.1,1.068a23.845,23.845,0,0,0-.981-4.623q-.679-2.076-1.217-2.075-.6,0-.838,1.2-.229-.079-.229-.261a2.223,2.223,0,0,1,.517-1.3q.517-.695.976-.72,1.714-.083,2.727,6.018" transform="translate(32.129 11.901)" fill="#000"/>
      <path id="Tracé_3008" data-name="Tracé 3008" d="M74.557,28.885a.385.385,0,0,1,.2.316,1.774,1.774,0,0,1-.507.838,3.7,3.7,0,0,1-2.672,1.567,1.639,1.639,0,0,1-1.328-.642,2.5,2.5,0,0,1-.522-1.636A6.139,6.139,0,0,1,71.09,25.68q1.363-1.846,2.7-1.846.963,0,.964,1.036a3.212,3.212,0,0,1-1.128,2.269,6.089,6.089,0,0,1-2.747,1.541q.157,1.9,1.5,1.9,1.327,0,2.174-1.693m-3.645-1.169a1.3,1.3,0,0,0,.418.079,2.635,2.635,0,0,0,1.717-.6,1.776,1.776,0,0,0,.735-1.408.825.825,0,0,0-.94-.925,1.522,1.522,0,0,0-1.229.811,4.571,4.571,0,0,0-.7,2.044" transform="translate(34.818 11.901)" fill="#000"/>
    </g>
  </g>
</svg>
