<svg xmlns="http://www.w3.org/2000/svg" width="179.99" height="49.063" viewBox="0 0 179.99 49.063">
    <g transform="translate(-17.5 -0.2)">
        <path d="M80.973,14.794c.417,0,.834-.278,1.529-.834.278-.278.417-.556.556-.695,0,1.112.417,1.529,1.112,1.529a3.155,3.155,0,0,0,1.946-.973,19.85,19.85,0,0,0,2.085-2.5l-.139.556-.139.695-.139.695v.695c0,.556.139.834.556.834a2.2,2.2,0,0,0,1.807-1.112c.417-.695.695-1.112.695-1.112l-.278-.278s-.973,1.529-1.39,1.529c-.139,0-.139-.139-.139-.417a3.131,3.131,0,0,1,.139-.973l.139-.556.417-3.614a1.385,1.385,0,0,1,.139-.556l.139-.417V7.149a4.112,4.112,0,0,0-1.39-.278,4.927,4.927,0,0,0-3.892,1.807A5.651,5.651,0,0,0,83.2,12.153h0a4.161,4.161,0,0,1-.556,1.112,1.27,1.27,0,0,1-.695.417c-.139,0-.278-.278-.278-.695a3.912,3.912,0,0,1,.139-1.112l.695-6.81a6.088,6.088,0,0,1,.834-2.919,1.912,1.912,0,0,1,1.807-.834c.278,0,.695,0,.834.139L87.088.339C86.81.339,86.671.2,86.254.2A4.613,4.613,0,0,0,82.78,1.868a8.65,8.65,0,0,0-1.807,4.309l-.695,5.7-.139.695c0,.417-.139.834-.139,1.251C80.417,14.516,80.556,14.794,80.973,14.794Zm4.17-5.7c.556-.973,1.112-1.39,1.946-1.39a3.168,3.168,0,0,1,1.529.417l-.139.834a5.486,5.486,0,0,1-1.668,3.475c-.695.695-1.251,1.112-1.807,1.112-.417,0-.695-.417-.695-1.112A11.731,11.731,0,0,1,85.143,9.1Z"
              transform="translate(24.368 0)" fill="#000"/>
        <path d="M79.143,26.112c0-.695-.278-1.112-.973-1.112-.973,0-1.807.695-2.78,1.946A6,6,0,0,0,74,30.7a2.215,2.215,0,0,0,.556,1.668,1.93,1.93,0,0,0,1.39.695,3.794,3.794,0,0,0,2.78-1.668l.556-.834-.139-.278a2.794,2.794,0,0,1-2.224,1.807c-.973,0-1.39-.695-1.529-1.946a6.022,6.022,0,0,0,2.78-1.529A3.568,3.568,0,0,0,79.143,26.112Zm-1.807,2.363a2.793,2.793,0,0,1-1.807.556.511.511,0,0,1-.417-.139,4.628,4.628,0,0,1,.695-2.085,1.681,1.681,0,0,1,1.251-.834c.695,0,.973.278.973.973A1.317,1.317,0,0,1,77.336,28.475Z"
              transform="translate(22.028 9.669)" fill="#000"/>
        <path d="M91.143,26.112c0-.695-.278-1.112-.973-1.112-.973,0-1.807.695-2.78,1.946A6,6,0,0,0,86,30.7a2.215,2.215,0,0,0,.556,1.668,1.93,1.93,0,0,0,1.39.695,3.794,3.794,0,0,0,2.78-1.668l.556-.834-.139-.278a2.794,2.794,0,0,1-2.224,1.807c-.973,0-1.39-.695-1.529-1.946a6.022,6.022,0,0,0,2.78-1.529A3.568,3.568,0,0,0,91.143,26.112Zm-1.807,2.5a2.793,2.793,0,0,1-1.807.556.511.511,0,0,1-.417-.139,4.628,4.628,0,0,1,.695-2.085,1.681,1.681,0,0,1,1.251-.834c.695,0,.973.278.973.973A1.77,1.77,0,0,1,89.336,28.614Z"
              transform="translate(26.707 9.669)" fill="#000"/>
        <path d="M85.966,32.049c-.139,0-.278-.139-.278-.417a5.214,5.214,0,0,1,.139-1.39l.417-3.058a7.837,7.837,0,0,1,.139-.973c0-.695-.278-1.112-.834-1.112a2.866,2.866,0,0,0-1.946.973,11.532,11.532,0,0,0-2.085,2.363V26.073c0-.556-.278-.834-.695-.834a2.54,2.54,0,0,0-1.39.834c-.834.834-.834,1.39-.834,1.39l.139.278c.417-.973.973-1.39,1.251-1.39.139,0,.278.139.278.556v1.251l-.417,3.753V33.3l1.251-.556L81.38,30.8a6.519,6.519,0,0,1,1.251-3.058,2.677,2.677,0,0,1,2.085-1.39c.278,0,.417.278.417.695a6.82,6.82,0,0,1-.139,1.529l-.278,1.668a9.971,9.971,0,0,0-.139,1.807c0,.556.278.973.695.973s.834-.278,1.529-.834a5.079,5.079,0,0,0,.973-1.39l-.417-.278C86.8,31.493,86.383,32.049,85.966,32.049Z"
              transform="translate(23.822 9.708)" fill="#000"/>
        <path d="M87.6,23.356a3.444,3.444,0,0,0,1.668,1.668l.556-.556A4.151,4.151,0,0,1,88.156,22.8Z"
              transform="translate(27.331 8.811)" fill="#000"/>
        <path d="M97.688,25.1l-.973,1.112a.764.764,0,0,1,.417.695c0,.834-.695,2.363-2.224,4.448-.695-4.17-1.668-6.254-2.78-6.254a1.438,1.438,0,0,0-.973.695,3.029,3.029,0,0,0-.556,1.39l.278.278q.208-1.251.834-1.251T92.963,28.3a23.668,23.668,0,0,1,.973,4.726l1.112-1.112a7.759,7.759,0,0,1,.695-1.112l.417-.556.139-.417a3.039,3.039,0,0,0,.417-.695,8.551,8.551,0,0,0,1.529-3.2A.762.762,0,0,0,97.688,25.1Z"
              transform="translate(28.5 9.708)" fill="#000"/>
        <path d="M101.643,26.112c0-.695-.278-1.112-.973-1.112-.973,0-1.807.695-2.78,1.946A6,6,0,0,0,96.5,30.7a2.215,2.215,0,0,0,.556,1.668,1.93,1.93,0,0,0,1.39.695,3.794,3.794,0,0,0,2.78-1.668l.556-.834-.139-.278a2.794,2.794,0,0,1-2.224,1.807c-.973,0-1.39-.695-1.529-1.946a6.022,6.022,0,0,0,2.78-1.529A3.568,3.568,0,0,0,101.643,26.112Zm-1.807,2.363a2.793,2.793,0,0,1-1.807.556.511.511,0,0,1-.417-.139,4.628,4.628,0,0,1,.695-2.085,1.681,1.681,0,0,1,1.251-.834c.695,0,.973.278.973.973A1.317,1.317,0,0,1,99.836,28.475Z"
              transform="translate(30.801 9.669)" fill="#000"/>
        <path d="M83.985,23.924a5.809,5.809,0,0,0,1.946-4.587,5.93,5.93,0,0,0-2.363-4.865A5.728,5.728,0,0,0,80.51,13.5H73.7V25.314h4.726C80.371,25.314,82.456,25.314,83.985,23.924ZM75.368,14.89h4.17a7.925,7.925,0,0,1,1.807.139,4.06,4.06,0,0,1,2.919,4.17,4.893,4.893,0,0,1-1.39,3.475,4.578,4.578,0,0,1-3.2,1.112H75.229v-8.9Z"
              transform="translate(21.911 5.185)" fill="#000"/>
        <path d="M96.5,23.924H86.768V19.893H95.8V18.5H86.768V15.029h9.173V13.5H85.1V25.314H96.5Z"
              transform="translate(26.356 5.185)" fill="#000"/>
        <path d="M29.175,22.751a5.852,5.852,0,0,1-4.17,1.529,6.382,6.382,0,0,1-1.39-.139,5.652,5.652,0,0,1-3.336-1.807,5.361,5.361,0,0,1-.973-2.919,4.234,4.234,0,0,1,1.112-3.058c.278-.278.556-.556.695-.556a6.556,6.556,0,0,1,3.614-.973,6.568,6.568,0,0,1,3.336.834,3.747,3.747,0,0,1,1.112.973.722.722,0,0,1,.278.556l1.807-.417a5.507,5.507,0,0,0-2.224-2.363A10.049,10.049,0,0,0,24.588,13.3a8.675,8.675,0,0,0-3.892.834,8.437,8.437,0,0,0-1.39.973,4.435,4.435,0,0,0-.834.973,5.943,5.943,0,0,0-.973,3.475,5.225,5.225,0,0,0,.973,3.336A11.278,11.278,0,0,0,19.307,24a2.908,2.908,0,0,0,.834.556,7.866,7.866,0,0,0,4.587,1.251c.695,0,4.031,0,5.976-2.224a6.247,6.247,0,0,0,.834-1.251l-1.807-.417A8.512,8.512,0,0,1,29.175,22.751Z"
              transform="translate(0 5.107)" fill="#000"/>
        <path d="M34.015,13.5,27.9,25.314h1.946l1.39-2.919h7.227l1.39,2.919H41.8L35.822,13.5Zm-2.085,7.505,2.919-5.838,2.919,5.838Z"
              transform="translate(4.055 5.185)" fill="#000"/>
        <path d="M49.724,20.032a3.064,3.064,0,0,0,1.946-3.058,3.171,3.171,0,0,0-2.5-3.336,6.272,6.272,0,0,0-1.807-.139H39.3V25.314h1.668V20.588h5.7L50.7,25.314h2.085l-4.309-5A8.86,8.86,0,0,0,49.724,20.032Zm-8.9-.834V14.89h6.532a2.283,2.283,0,0,1,2.224.973,2.1,2.1,0,0,1,.278,1.112,1.808,1.808,0,0,1-.417,1.251,3.36,3.36,0,0,1-2.78.834H40.829Z"
              transform="translate(8.499 5.185)" fill="#000"/>
        <path d="M49.3,14.89h4.865V25.314h1.668V14.89h4.726V13.5H49.3Z" transform="translate(12.398 5.185)"
              fill="#000"/>
        <path d="M70.158,23.785h-9.59V19.893h8.9V18.5h-8.9V15.029h9.173V13.5H58.9V25.314H70.158Z"
              transform="translate(16.141 5.185)" fill="#000"/>
        <path d="M106.632,23.507,101.907,13.5H100.1l5.56,11.814h1.807L112.887,13.5H111.08Z"
              transform="translate(32.204 5.185)" fill="#000"/>
        <rect width="1.668" height="11.814" transform="translate(147.593 18.685)" fill="#000"/>
        <path d="M123,18.582c-1.251-.139-2.641-.278-3.892-.417-.695-.139-1.529-.139-1.946-.834a1.253,1.253,0,0,1-.139-.695,1.549,1.549,0,0,1,1.251-1.529,8.254,8.254,0,0,1,2.5-.417,6.636,6.636,0,0,1,3.614.973,5.432,5.432,0,0,0,.695.556l1.529-.556a4.572,4.572,0,0,0-.834-.834,1.919,1.919,0,0,0-.556-.417,8.047,8.047,0,0,0-4.587-1.112,7.659,7.659,0,0,0-3.892.834,2.81,2.81,0,0,0-1.668,2.641,2.31,2.31,0,0,0,.834,1.946c.834.834,1.946.973,4.17,1.112a18.77,18.77,0,0,1,3.892.556,1.674,1.674,0,0,1,.973,1.39,1.9,1.9,0,0,1-.834,1.529,5.9,5.9,0,0,1-3.2.834,9.361,9.361,0,0,1-3.336-.556,7.443,7.443,0,0,1-1.668-.973l-.278-.278-1.529.695a3.824,3.824,0,0,0,1.112,1.251,4.243,4.243,0,0,0,1.251.695,3.2,3.2,0,0,0,1.251.417,18.679,18.679,0,0,0,3.058.417c.695,0,1.39-.139,1.668-.139a4.839,4.839,0,0,0,3.475-1.807,2.93,2.93,0,0,0,.556-1.946,2.662,2.662,0,0,0-.556-1.807C125.636,19.276,124.8,18.86,123,18.582Z"
              transform="translate(37.663 5.107)" fill="#000"/>
        <rect width="1.668" height="11.814" transform="translate(167.746 18.685)" fill="#000"/>
        <path d="M128.9,14.89h4.865V25.314h1.668V14.89h4.726V13.5H128.9Z" transform="translate(43.433 5.185)"
              fill="#000"/>
        <path d="M140.568,23.924V19.893H149.6V18.5h-9.034V15.029h9.173V13.5H138.9V25.314h11.258v-1.39Z"
              transform="translate(47.332 5.185)" fill="#000"/>
        <path d="M69.753,26.946a6.215,6.215,0,0,0-1.668,4.309,1.732,1.732,0,0,0,.556,1.529C66.834,34.173,66,35.7,66,37.092a2.927,2.927,0,0,0,.695,1.807,2.642,2.642,0,0,0,1.807.695,5.762,5.762,0,0,0,4.17-2.085,3.824,3.824,0,0,0,1.112-2.085,18.147,18.147,0,0,0,.417-3.475c0-1.251.139-2.085.139-2.641l.278-2.919a2.192,2.192,0,0,1,.139-.556l.139-.417v-.139A3.487,3.487,0,0,0,73.505,25,5.53,5.53,0,0,0,69.753,26.946Zm3.2,5.282c-.139,2.78-.417,4.587-.973,5.282a2.647,2.647,0,0,1-2.5,1.39,2.927,2.927,0,0,1-1.807-.695,2.3,2.3,0,0,1-.695-1.668c0-.973.695-2.085,1.946-3.336H69.2c1.251,0,2.5-1.112,4.031-3.336A22.155,22.155,0,0,0,72.949,32.227Zm.417-4.865A5.839,5.839,0,0,1,71.7,30.838c-.695.695-1.251,1.112-1.807,1.112-.417,0-.695-.417-.695-1.112a6.77,6.77,0,0,1,.834-3.475c.556-.973,1.112-1.39,1.946-1.39a2.8,2.8,0,0,1,1.529.417Z"
              transform="translate(18.909 9.669)" fill="#000"/>
    </g>
</svg>
