<svg xmlns="http://www.w3.org/2000/svg" width="26.624" height="26.624" viewBox="0 0 26.624 26.624"><g transform="translate(-450.688 -461.688)"><path d="M26.624.5H0v-1H26.624Z" transform="translate(450.688 475)" fill="#090f58"/><path d="M26.624.5H0v-1H26.624Z" transform="translate(464 461.688) rotate(90)" fill="#090f58"/><path d="M10,1a9,9,0,1,0,9,9,9.01,9.01,0,0,0-9-9m0-1A10,10,0,1,1,0,10,10,10,0,0,1,10,0Z" transform="translate(454 465)" fill="#090f58"/><circle cx="6" cy="6" r="6" transform="translate(458 469)" fill="#090f58"/><path d="M12,.5H0v-1H12Z" transform="translate(458 475)" fill="#b9a1b5"/><path d="M12,.5H0v-1H12Z" transform="translate(464 469) rotate(90)" fill="#b9a1b5"/></g></svg>