<?xml version="1.0" standalone="no"?>
<!DOCTYPE svg PUBLIC "-//W3C//DTD SVG 20010904//EN"
 "http://www.w3.org/TR/2001/REC-SVG-20010904/DTD/svg10.dtd">
<svg version="1.0" xmlns="http://www.w3.org/2000/svg"
 width="700.000000pt" height="700.000000pt" viewBox="0 0 700.000000 700.000000"
 preserveAspectRatio="xMidYMid meet">
<metadata>
Created by potrace 1.14, written by Peter Selinger 2001-2017
</metadata>
<g transform="translate(0.000000,700.000000) scale(0.100000,-0.100000)"
fill="#000000" stroke="none">
<path d="M3310 6464 c-672 -45 -1179 -164 -1610 -379 -324 -161 -641 -392
-885 -646 -112 -116 -159 -175 -262 -329 -244 -365 -382 -740 -449 -1225 -26
-181 -26 -719 -1 -910 51 -380 148 -702 298 -985 63 -119 235 -378 326 -490
325 -403 797 -725 1348 -920 318 -112 705 -189 1104 -220 173 -13 680 -13 847
0 897 71 1637 328 2174 756 114 91 321 299 402 404 89 116 191 270 277 419 71
125 78 141 63 141 -5 0 -193 38 -418 85 -225 47 -416 85 -425 85 -10 0 -38
-36 -72 -92 -73 -122 -148 -222 -258 -340 -402 -435 -987 -681 -1759 -739
-172 -13 -656 -7 -830 11 -559 56 -1102 270 -1477 583 -527 440 -805 1154
-754 1940 43 658 264 1133 711 1525 458 401 1203 620 2040 599 350 -9 643 -52
940 -139 433 -126 732 -297 995 -569 118 -123 176 -198 257 -335 l59 -100 432
93 c238 51 436 94 440 96 11 3 -141 253 -227 370 -271 373 -664 707 -1059 900
-469 231 -1004 362 -1657 407 -132 9 -458 11 -570 4z"/>
<path d="M3737 5230 c-243 -39 -471 -174 -670 -398 -215 -243 -356 -548 -421
-912 -31 -172 -198 -1732 -203 -1898 -6 -186 3 -229 63 -282 30 -26 43 -30 89
-30 70 0 138 26 217 83 65 46 219 197 262 255 l24 33 6 -48 c31 -230 109 -323
269 -323 237 0 589 289 879 721 l69 104 -6 -50 c-4 -27 -17 -111 -30 -185 -52
-293 -61 -463 -27 -527 38 -69 111 -88 219 -55 159 49 275 162 430 419 34 58
63 113 63 123 0 9 -10 26 -23 38 l-23 22 -57 -83 c-82 -121 -166 -217 -221
-254 -57 -39 -60 -39 -86 -13 -24 24 -25 60 -5 225 30 255 167 1155 189 1250
13 55 21 103 17 107 -12 14 -126 38 -232 49 -237 25 -499 -32 -704 -153 -257
-152 -502 -438 -614 -718 -41 -104 -80 -241 -93 -330 -23 -165 -176 -399 -283
-435 -83 -28 -100 15 -92 229 6 182 196 1879 232 2078 74 410 214 615 456 673
77 18 233 20 314 3 l59 -12 133 139 c90 93 131 141 124 148 -13 13 -250 18
-324 7z m489 -1830 c43 -11 107 -34 142 -50 62 -29 63 -30 57 -62 -3 -18 -12
-80 -20 -138 -50 -341 -157 -585 -368 -836 -201 -240 -415 -365 -527 -307 -21
11 -45 36 -60 63 -21 40 -25 60 -28 173 -18 559 218 1080 527 1163 71 19 188
17 277 -6z"/>
</g>
</svg>
